<?xml version="1.0" standalone="no"?>
<!DOCTYPE svg PUBLIC "-//W3C//DTD SVG 1.1//EN" "http://www.w3.org/Graphics/SVG/1.1/DTD/svg11.dtd" >
<svg>
<metadata>
Created by FontForge 20090914 at Sat Mar 16 23:56:41 2013
 By www-data
</metadata>
<defs>
<font id="BonzaiRegular" horiz-adv-x="1139" >
  <font-face 
    font-family="Bonzai"
    font-weight="400"
    font-stretch="normal"
    units-per-em="2048"
    panose-1="2 0 0 0 0 0 0 0 0 0"
    ascent="1638"
    descent="-410"
    x-height="749"
    cap-height="1184"
    bbox="-369 -338 1280 1344"
    underline-thickness="150"
    underline-position="-142"
    unicode-range="U+0020-U+F005"
  />
<missing-glyph horiz-adv-x="1536" 
d="M256 0v1280h1024v-1280h-1024zM288 32h960v1216h-960v-1216z" />
    <glyph glyph-name=".notdef" horiz-adv-x="1536" 
d="M256 0v1280h1024v-1280h-1024zM288 32h960v1216h-960v-1216z" />
    <glyph glyph-name="space" unicode=" " horiz-adv-x="569" 
 />
    <glyph glyph-name="space" unicode="&#xa0;" horiz-adv-x="569" 
 />
    <glyph glyph-name="exclam" unicode="!" horiz-adv-x="453" 
d="M327 1052c18 -14.667 31.334 -94.666 40.001 -239.999v-32c0 -188.667 -37.333 -354 -112 -496c-12 -10.667 -21.333 -16 -28 -16v-4c64 -24.667 96 -75.334 96 -152.001v-8c0 -26.667 -17.333 -62.667 -52 -108l-4 -4h-4c-27.333 0 -63.333 21.333 -108 64
c-21.333 10.667 -32 20 -32 28l92 172c0 195.333 -34.667 411.333 -104 648l-28 76c105.333 34.667 186.666 58.667 243.999 72z" />
    <glyph glyph-name="quotedbl" unicode="&#x22;" horiz-adv-x="506" 
d="M184 1221c24 0 42.667 -36 56 -108v-28c0 -78.667 -32 -144 -96 -196l-24 -8h-4v36c0 48 -18.667 114.667 -56 200zM356 1217l12 0.000976562c40 -44.667 60 -86 60 -124v-8c0 -86.667 -20 -144 -60 -172c0 -10.667 -21.333 -25.334 -64 -44.001v32
c0 46 -20 116.667 -60 212z" />
    <glyph glyph-name="numbersign" unicode="#" 
d="M805 1004l8 -0.000976562c-18.667 -116.667 -28 -203.334 -28 -260.001l240 -16v-8h-248l-36 -324l320 8c0 -21.333 -8 -58.666 -24 -111.999c-155.333 21.333 -255.333 32 -300 32v-4c-5.33301 -44 -9.33301 -149.333 -12 -316l-4 -4h-4c-80 18 -120 30 -120 36
c13.333 93.333 32 192 56 296l-280 20l-8 -232l4 -92l-4 -4c-77.333 4.66699 -116 11.334 -116 20.001v8c0 54 13.333 155.333 40 304l-148 8v8h4c101.333 2 152 6 152 12l64 320h-4l-256 -16l-4 4c6 58.667 15.333 88 28 88l252 -8l52 216h8
c-13.333 -96.667 -20 -168.667 -20 -216l328 -24zM405 707.999v-4l-28 -320h4l288 12c29.333 148.667 53.333 256.667 72 324z" />
    <glyph glyph-name="dollar" unicode="$" 
 />
    <glyph glyph-name="percent" unicode="%" horiz-adv-x="678" 
d="M247 883c74.667 -42 112 -85.999 112 -131.999c4.66699 0 10 -20 16 -60c0 -64.667 -37.333 -120.667 -112 -168h-8v4c34.667 45.333 52 86.666 52 123.999v16c0 59.333 -42.667 103.333 -128 132v4zM195 875.001l8 -0.00292969v-4
c-42.667 -43.333 -64 -100.666 -64 -171.999c0 -35.333 29.333 -72.666 88 -111.999l24 -4h20v-4c-20.667 -31.333 -40.667 -56.666 -60 -75.999c-85.333 24 -128 81.333 -128 172c0 93.333 37.333 160 112 200zM551 870.998l40 -4l-436 -848l-12 -12h-44v8l444 856h8z
M467 390.998c74.667 -39.333 112 -81.999 112 -127.999c4.66699 0 10 -20 16 -60c0 -66.667 -38.667 -121.334 -116 -164.001h-4v4c34.667 43.333 52 83.333 52 120v16c0 56 -36 97.333 -108 124l-16 4c0 12 21.333 40 64 84zM415 382.999h11.999
c-40 -45.333 -60 -88 -60 -128v-56c26.667 -69.333 69.334 -104 128.001 -104v-4l-60 -76c-88 27.333 -132 86 -132 176c0 86.667 37.333 150.667 112 192z" />
    <glyph glyph-name="ampersand" unicode="&#x26;" horiz-adv-x="996" 
d="M229 1092l311.999 -36.0029v-8c-46 -4 -96.667 -32 -152 -84c-50.667 -62.667 -76 -148 -76 -256c0 -59.333 21.333 -115.333 64 -168c152 180 228 324 228 432v80h4c85.333 -71.333 142.666 -124.666 171.999 -159.999c-49.333 -122 -129.333 -240.667 -240 -356
c-53.333 -50.667 -82.666 -76 -87.999 -76v-4c78.667 -68 152 -121.333 220 -160c37.333 62.667 66.666 142.667 87.999 240l4 20h8l8 -84c0 -56.667 -13.333 -127.334 -40 -212.001c90.667 -46 153.334 -74 188.001 -84v-8h-4c-52.667 0 -123.334 16 -212.001 48
c-86 -138.667 -203.333 -208 -352 -208h-36c-109.333 0 -186.666 53.333 -231.999 160l-8 32l176 116c34 -82.667 86 -138.667 156 -168l28 -4h28c66.667 0 122.667 33.333 168 100v4c-43.333 10.667 -126 65.334 -248 164.001c-81.333 -60 -182.666 -108 -303.999 -144h-4
v4c83.333 62.667 162 133.334 236 212.001c-117.333 136.667 -176 258 -176 364v8c0 94.667 28 173.334 84 236.001z" />
    <glyph glyph-name="quotesingle" unicode="'" horiz-adv-x="348" 
d="M184 1209l12 0.000976562c40 -44.667 60 -86 60 -124v-8c0 -86.667 -20 -144 -60 -172c0 -10.667 -21.333 -25.334 -64 -44.001v32c0 46 -20 116.667 -60 212z" />
    <glyph glyph-name="parenleft" unicode="(" horiz-adv-x="386" 
d="M343 956v-4l-8 -8v4zM331 940v-4c-93.333 -147.333 -140 -302 -140 -464v-24c0 -112 22.667 -238.667 68 -380l-108 -76c-29.333 52.667 -52 132.667 -68 240l-8 116c0 210.667 80 404 240 580z" />
    <glyph glyph-name="parenright" unicode=")" horiz-adv-x="393" 
d="M219 976c12 -10 32 -64.667 60 -164c18.667 -74 28 -146 28 -216c0 -204.667 -77.333 -399.334 -232 -584.001l-16 -12v4c93.333 150.667 140 306.667 140 468v12c0 110 -24 227.333 -72 352c0 8.66699 30.667 55.334 92 140.001z" />
    <glyph glyph-name="asterisk" unicode="*" horiz-adv-x="797" 
d="M381 641l6.99902 -5.99902l-28 -127l97 76h7v-6l-118 -146l104 6h117l14 -13l-7 -101v-7c-103.333 34 -172.333 51 -207 51v-6c41.333 -57.333 62 -93.333 62 -108l-96 89l-14 -178h-14l-14 178v6l-103 -152h-7c-41.333 18 -66.666 35 -75.999 51l131 139l-117 6h-21v13
h7l145 19l-124 108c23.333 28.667 46.333 47.667 69 57l89 -108v140c0 9.33301 32.333 15.666 97 18.999z" />
    <glyph glyph-name="plus" unicode="+" horiz-adv-x="603" 
d="M211 656l5.99609 -0.000976562c40.667 -20 83.334 -59.667 128.001 -119l48 6c64.667 0 109.334 -6.33301 134.001 -19c-1.33301 -105.333 -15.666 -170.333 -42.999 -195l-73 19l-6 -138h-6c-125.333 20.667 -188 35.334 -188 44.001l18 100h-6
c-28 0 -70.667 -14.333 -128 -43l-6 6c14.667 51.333 63.334 114 146.001 188z" />
    <glyph glyph-name="comma" unicode="," horiz-adv-x="371" 
d="M164 129l116 -92.001v-4c0 -37.333 -22.667 -86.666 -68 -147.999c-54 -53.333 -102 -80 -144 -80l60 128c18.667 69.333 28 133.333 28 192l4 4h4z" />
    <glyph glyph-name="hyphen" unicode="-" horiz-adv-x="536" 
d="M390 504l71.001 -8c-24.667 -82.667 -39.667 -124 -45 -124l-116 12h-26c-52.667 0 -111.334 -8 -176.001 -24v4c58.667 93.333 156 140 292 140z" />
    <glyph glyph-name="hyphen" unicode="&#xad;" horiz-adv-x="536" 
d="M390 504l71.001 -8c-24.667 -82.667 -39.667 -124 -45 -124l-116 12h-26c-52.667 0 -111.334 -8 -176.001 -24v4c58.667 93.333 156 140 292 140z" />
    <glyph glyph-name="period" unicode="." horiz-adv-x="281" 
d="M160 236l12 -0.000976562c26.667 -46 40 -87.333 40 -124c0 -39.333 -18.667 -76.666 -56 -111.999h-4l-92 76c52 66 85.333 119.333 100 160z" />
    <glyph glyph-name="slash" unicode="/" horiz-adv-x="723" 
d="M642 1152l0.000976562 -4c-154.667 -325.333 -276 -617.333 -364 -876l-72 -272l-132 28c139.333 363.333 328.666 738 567.999 1124z" />
    <glyph glyph-name="zero" unicode="0" horiz-adv-x="918" 
d="M494 1128c226.667 -93.333 340.003 -265.334 340.003 -516.001v-64c0 -159.333 -66.667 -296.666 -200 -411.999c-48.667 -34.667 -79.334 -52 -92.001 -52c93.333 116 140 244 140 384v76c0 155.333 -48 262 -144 320c-44.667 29.333 -91.334 44 -140.001 44h-20l-4 4
h-4c75.333 141.333 116.666 213.333 123.999 216zM430.003 1104l-0.000976562 -8c-60 -38 -110.667 -90 -152 -156c-40 -58 -60 -150 -60 -276v-32c5.33301 -88.667 25.333 -163.334 60 -224.001c82.667 -108 169.334 -180 260.001 -216c-46 -126 -71.333 -190 -76 -192
c-163.333 77.333 -266 173.333 -308 288c-37.333 80.667 -56 155.334 -56 224.001c0 327.333 104 523.333 312 588z" />
    <glyph glyph-name="one" unicode="1" horiz-adv-x="483" 
d="M350 1104l8 -0.000976562c-42.667 -173.333 -64 -350.666 -64 -531.999c0 -187.333 32 -351.333 96 -492l-212 -80c-32 95.333 -48 190 -48 284v84c0 226 73.333 471.333 220 736zM310 1060c-67.333 -113.333 -132.667 -181.332 -196 -203.999
c-5.33301 13.333 -10.666 57.333 -15.999 132c11.333 8 28.666 12 51.999 12c42 13.333 95.333 34.666 160 63.999v-4z" />
    <glyph glyph-name="two" unicode="2" horiz-adv-x="843" 
d="M415 1081h32c81.333 0 152 -32 212 -96h-4l-60 12c-96 0 -208 -70.667 -336 -212l-88 -108c-5.33301 2 -32 74 -80 216c120 125.333 228 188 324 188zM567 969c16.667 -1.33301 83.333 -34.667 200 -100v-4c0 -140.667 -44 -266 -132 -376
c-79.333 -120.667 -223.333 -260.667 -432 -420l-116 -76h-4c188.667 214 322 403.333 400 568c58.667 108.667 88 222 88 340zM730.999 260.999h4l-12 -244l-4 -4h-4c-64 8 -122.667 12 -176 12h-56c-125.333 0 -221.333 -4 -288 -12v8c252 80 430.667 160 536 240z" />
    <glyph glyph-name="three" unicode="3" horiz-adv-x="865" 
d="M432 1092h36c70.667 0 128 -42.667 172 -128h-4c-16 13.333 -37.333 20 -64 20h-36c-85.333 0 -197.333 -70.667 -336 -212h-4l-52 188c118.667 88 214.667 132 288 132zM628 924c58.667 -32 88 -72.002 88 -120.002v-20c0 -38 -33.333 -86 -100 -144v-4
c50 -22 95.333 -74 136 -156c16 -40 24 -72 24 -96v-60c-4 -51.333 -36 -111.333 -96 -180c-84 -77.333 -145.333 -116 -184 -116v4c82.667 104.667 124 191.334 124 260.001v12c0 120.667 -88 198 -264 232l-44 8c54.667 117.333 86.667 176 96 176l112 -32v4l-4 36v20
c77.333 40.667 116 79.334 116 116.001v24l-8 36h4zM188 331.998l4 0.00195312c4.66699 0 14 -25.333 28 -76c37.333 -90.667 118.666 -169.334 243.999 -236.001c-3.33301 -10.667 -24.666 -17.334 -63.999 -20.001h-40c-88.667 0 -186 53.333 -292 160z" />
    <glyph glyph-name="four" unicode="4" horiz-adv-x="970" 
d="M626 1108l0.00292969 -3.99805c-119.333 -124.667 -195.333 -227.334 -228 -308.001c-45.333 -84 -81.333 -177.333 -108 -280c-18.667 -68 -28 -120 -28 -156c136 97.333 244 152 324 164c5.33301 24 9.33301 104 12 240c0 69.333 -8 152 -24 248h8
c86 -136.667 138 -267.334 156 -392.001c5.33301 -53.333 10.666 -80 15.999 -80c33.333 0 80 -6.66699 140 -20v-4c0 -12 -17.333 -68 -52 -168h-4l-84 16v-16c0 -106 -16 -222 -48 -348h-4c-133.333 24 -200 40 -200 48c29.333 119.333 52 231.333 68 336h-100
c-76.667 0 -147.334 -13.333 -212.001 -40v-56l-4 -4v-4l-172 108c30.667 183.333 126.667 366 288 548c87.333 80 172.666 137.333 255.999 172z" />
    <glyph glyph-name="five" unicode="5" horiz-adv-x="813" 
d="M728 1109c-15.333 -146.667 -25.999 -220 -31.999 -220h-92c-117.333 0 -230.666 26.667 -339.999 80c-42.667 -130.667 -64 -230.667 -64 -300l4 -28c63.333 40 120.666 60 171.999 60h16c161.333 0 274.666 -84 339.999 -252c10.667 -26.667 16 -66.667 16 -120v-16
c-13.333 -138.667 -32 -208 -56 -208l-228 -120l-4 4v4c77.333 102 116 204.667 116 308v64c-7.33301 63.333 -40.666 126 -99.999 188c-46.667 32 -89.334 48 -128.001 48h-16c-80.667 0 -156.667 -20 -228 -60h-4v4l72 76c-16 103.333 -24 186 -24 248v32
c0 82.667 12 150.667 36 204c70 -34.667 107.333 -56 112 -64l-12 -28l44 -4c120.667 0 254 33.333 400 100zM236.001 373l4 -4v-24c0 -102 40 -195.333 120 -280l88 -52c-12 -5.33301 -41.333 -9.33301 -88 -12c-125.333 0 -225.333 72 -300 216z" />
    <glyph glyph-name="six" unicode="6" horiz-adv-x="813" 
d="M426 1120v-4.00098c-102 -106 -159.333 -182 -172 -228c-26.667 -68 -40 -145.333 -40 -232v-24c90.667 66.667 168 100 232 100h32c97.333 0 172 -52 224 -156c16 -50 24 -84.667 24 -104v-48c0 -93.333 -56 -178.666 -168 -255.999l-4 4
c34.667 78.667 52 134.667 52 168v32c0 86 -33.333 139.333 -100 160l-24 8c-60 0 -113.333 -22.667 -160 -68h-4l-100 88v-8c0 -102 58.667 -210 176 -324c54.667 -41.333 100 -68 136 -80v-8l-148 -140c-65.333 29.333 -133.333 88 -204 176c-64 96.667 -96 194 -96 292
c4 332 118.667 549.333 344 652z" />
    <glyph glyph-name="seven" unicode="7" horiz-adv-x="760" 
d="M234 1104l28.001 -0.00195312c98 0 198 -40 300 -120l80 80h4l-52 -108c12 -1.33301 41.333 -26.666 88 -75.999h-8c-49.333 18.667 -82.666 28 -99.999 28c-112 -264.667 -168 -554 -168 -868c-8.66699 -5.33301 -83.334 -18.666 -224.001 -39.999l-4 12
c0 184 62.667 409.333 188 676c34 68 86 149.333 156 244c-36.667 8 -70 12 -100 12h-68c-106 0 -195.333 -45.333 -268 -136h-4c2 165.333 7.33301 248 16 248c49.333 32 94.666 48 135.999 48z" />
    <glyph glyph-name="eight" unicode="8" horiz-adv-x="850" 
d="M503 1120l4 -0.000976562c133.333 -31.333 200 -94 200 -188v-32c0 -99.333 -77.333 -207.333 -232 -324l-40 -16c109.333 87.333 164 170 164 248v12c0 68.667 -48 123.334 -144 164.001l-68 12v4zM363 1084l52 -8.00098v-8c-112 -23.333 -168 -79.333 -168 -168
c26.667 -84.667 64 -140.667 112 -168c48.667 -24 82 -36 100 -36c-37.333 -96 -62.666 -146.667 -75.999 -152c-24 13.333 -41.333 20 -52 20c-69.333 -38.667 -104 -100 -104 -184v-4c0 -88 57.333 -156 172 -204c33.333 -13.333 70.666 -20 111.999 -20h28
c0 -12.667 -28 -66 -84 -160c-118 16.667 -203.333 43.334 -256 80.001c-82.667 70 -124 139.333 -124 208v36c0 38 24 90 72 156c74 67.333 130 102 168 104v4c-66.667 28 -118.667 86.667 -156 176l-16 96c0 102 54.667 176.667 164 224zM575 631.998
c136 -50 204 -151.332 204 -303.999c0 -96 -56 -186.667 -168 -272c-50 -21.333 -87.333 -32 -112 -32v4c98.667 103.333 148 188.666 148 255.999v32c0 79.333 -61.333 143.333 -184 192v4c0 6 37.333 46 112 120z" />
    <glyph glyph-name="nine" unicode="9" horiz-adv-x="828" 
d="M454 1113c189.333 -99.333 284.001 -266 284.001 -500v-44c0 -84.667 -40 -206 -120 -364c-66.667 -93.333 -132 -156 -196 -188l-76 -24v4c170.667 168.667 256 334 256 496c-88.667 -72 -167.334 -108 -236.001 -108h-40c-70.667 0 -133.334 36 -188.001 108
c-32 60.667 -48 114 -48 160v32c0 114.667 65.333 206.667 196 276v-4c-56 -71.333 -84 -135.333 -84 -192v-36c0 -78.667 40 -129.334 120 -152.001h52c30.667 0 70.667 20 120 60h4l100 -88h4c0 86.667 -48 189.334 -144 308.001
c-49.333 49.333 -98.666 93.333 -147.999 132v8l68 56c42.667 40 68 60 76 60z" />
    <glyph glyph-name="colon" unicode=":" horiz-adv-x="333" 
d="M197 229l12 -0.000976562c26.667 -46 40 -87.333 40 -124c0 -39.333 -18.667 -76.666 -56 -111.999h-4l-92 76c52 66 85.333 119.333 100 160zM191 632.999l12 -0.000976562c26.667 -46 40 -87.333 40 -124c0 -39.333 -18.667 -76.666 -56 -111.999h-4l-92 76
c52 66 85.333 119.333 100 160z" />
    <glyph glyph-name="semicolon" unicode=";" horiz-adv-x="371" 
d="M158 196l116 -92.001v-4c0 -37.333 -22.667 -86.666 -68 -147.999c-54 -53.333 -102 -80 -144 -80l60 128c18.667 69.333 28 133.333 28 192l4 4h4zM192 548.999l12 -0.000976562c26.667 -46 40 -87.333 40 -124c0 -39.333 -18.667 -76.666 -56 -111.999h-4l-92 76
c52 66 85.333 119.333 100 160z" />
    <glyph glyph-name="semicolon" unicode="&#x37e;" horiz-adv-x="371" 
d="M158 196l116 -92.001v-4c0 -37.333 -22.667 -86.666 -68 -147.999c-54 -53.333 -102 -80 -144 -80l60 128c18.667 69.333 28 133.333 28 192l4 4h4zM192 548.999l12 -0.000976562c26.667 -46 40 -87.333 40 -124c0 -39.333 -18.667 -76.666 -56 -111.999h-4l-92 76
c52 66 85.333 119.333 100 160z" />
    <glyph glyph-name="less" unicode="&#x3c;" horiz-adv-x="2964" 
d="M-199 343l117 -91l-20 -23l-267 184l248 195l18 -35l-198 -157z" />
    <glyph glyph-name="equal" unicode="=" horiz-adv-x="573" 
d="M395 368l72.998 -8c-25.333 -82.667 -41 -124 -47 -124l-121 12h-26c-55.333 0 -116.666 -8 -183.999 -24v4c60.667 93.333 162.334 140 305.001 140zM415.998 572l75 -8c-26 -82.667 -42 -124 -48 -124l-123 12h-26c-56 0 -118.333 -8 -187 -24v4
c62 93.333 165 140 309 140z" />
    <glyph glyph-name="greater" unicode="&#x3e;" horiz-adv-x="479" 
d="M374 400l-237 -216l-30 26l229 206l-254 136l24 40l261 -144z" />
    <glyph glyph-name="question" unicode="?" horiz-adv-x="895" 
d="M531 1105c78.667 0 160.334 -41.333 245.001 -124l-49 37l-64 6c-126.667 0 -280 -141.333 -460 -424c-72.667 76.667 -115.334 125.667 -128.001 147c148.667 238.667 300.667 358 456 358zM775 896c18.667 -38.667 28 -84 28 -136
c0 -172.667 -126.667 -331.334 -380 -476.001h-8l-124 144v4c157.333 34 269.333 87.333 336 160c84 94.667 128 177.334 132 248.001c6 37.333 11.333 56 16 56zM419 248c45.333 -45.333 68 -92 68 -140c0 -35.333 -16 -71.333 -48 -108h-4
c-54.667 35.333 -92 63.333 -112 84c42 54 71.333 107.333 88 160l4 4h4z" />
    <glyph glyph-name="at" unicode="@" horiz-adv-x="1052" 
d="M560 843l41 0.000976562c108.667 0 200 -41 274 -123c41.333 -62 62 -117.667 62 -167v-45c0 -101.333 -49.667 -190.333 -149 -267c-51.333 -26.667 -96 -40 -134 -40h-28c-42.667 0 -72 15.333 -88 46l-6 23v20c0 14 3 31 9 51v3h-3
c-46.667 -82 -96.334 -129.667 -149.001 -143h-32c-40 0 -64.667 28.667 -74 86v20c0 118 57 220.333 171 307c34.667 22.667 61.667 34 81 34h16c37.333 0 58 -23 62 -69h3c10 40 17.333 60 22 60h112l7 -5c-70.667 -214 -106 -333.667 -106 -359v-17
c8 -12 16.333 -19.667 25 -23h28c48.667 11.333 95.334 42 140.001 92c43.333 63.333 65 122.666 65 177.999v8c0 142 -69.667 237.667 -209 287c-33.333 9.33301 -75.666 14 -126.999 14h-10c-107.333 0 -206 -38 -296 -114c-89.333 -93.333 -134 -191 -134 -293v-34
c0 -146 78 -254 234 -324c49.333 -17.333 96 -26 140 -26h22c190.667 0 329 81.333 415 244c1.33301 9.33301 4.33301 14 9 14h19l6 -6c-90.667 -183.333 -240.334 -275 -449.001 -275h-25c-138 -0 -255.333 58.333 -352 175c-46 70 -69 138.667 -69 206v38
c0 123.333 54 230.333 162 321c92.667 68.667 197.667 103 315 103zM354 291.001l-0.000976562 -35c0 -14 7 -25.667 21 -35h11c36 0 79.333 55.667 130 167c23.333 52 35 103 35 153v21c-4.66699 37.333 -17.667 56 -39 56c-51.333 0 -102.666 -98.667 -153.999 -296z" />
    <glyph glyph-name="A" unicode="A" horiz-adv-x="1116" 
d="M712 1192l4 0.000976562c-66.667 -98.667 -100 -153.334 -100 -164.001l104 60c64.667 -99.333 119.334 -214 164.001 -344c50.667 -160.667 76 -344.667 76 -552v-12c0 -62.667 -4 -122.667 -12 -180h-8c-24 115.333 -60 242 -108 380l-20 52h-4l-52 -56
c-110 79.333 -211.333 126 -304 140v-92c0 -74 18.667 -159.333 56 -256l-264 -156c-5.33301 0 -8 4 -8 12l-4 120c0 130 16 258 48 384c-64.667 -8 -115.334 -20 -152.001 -36v4c42.667 46.667 100 80 172 100c94.667 269.333 232 468 412 596zM552 908.001
c-58.667 -159.333 -88 -258 -88 -296h4c72 0 170.667 -21.333 296 -64c-52 130.667 -121.333 250.667 -208 360h-4z" />
    <glyph glyph-name="B" unicode="B" horiz-adv-x="1011" 
d="M285 1175v-4.00098c-26.667 -112 -40 -182.667 -40 -212l228 208h4c181.333 -59.333 272 -146 272 -260v-36c0 -52 -16 -108 -48 -168h4c68 -30.667 121.333 -80 160 -148c24 -69.333 36 -122.666 36 -159.999c0 -153.333 -85.333 -264 -256 -332
c-52 -13.333 -89.333 -20 -112 -20h-44l-108 8v8h4c168 26.667 252 48 252 64c104 42.667 156 104 156 184v16c0 48.667 -20 96.667 -60 144c-78.667 48 -156 72 -232 72h-20c-68 0 -134.667 -12 -200 -36c34.667 -116.667 74.667 -214 120 -292
c18.667 -26.667 28 -44 28 -52l-228 -160c-58.667 185.333 -88 365.333 -88 540v72c0 209.333 57.333 397.333 172 564zM248 906.999v-104c0 -76.667 10.667 -160.667 32 -252h4l252 200l108 -12l4 24v60c0 59.333 -21.333 98 -64 116c-46 26.667 -87.333 40 -124 40
c-66 0 -136.667 -24 -212 -72z" />
    <glyph glyph-name="C" unicode="C" horiz-adv-x="884" 
d="M601 1180h67.999l88 -8v-4c-29.333 -168 -49.333 -252 -60 -252c-61.333 26.667 -118.666 40 -171.999 40h-56c-86.667 0 -172 -44 -256 -132v8c52.667 148 140.667 254.667 264 320c46.667 18.667 88 28 124 28zM276.999 1076l0.000976562 -3.99902
c-72 -118.667 -108 -221.334 -108 -308.001v-44c0 -121.333 66.667 -241.333 200 -360c99.333 -58.667 210 -88 332 -88h32l4 -4h4l-48 -256l-4 -4h-4c-118 0 -246 48 -384 144c-76.667 60 -131.334 145.333 -164.001 256c-21.333 96 -32 169.333 -32 220v84
c0 140 57.333 261.333 172 364z" />
    <glyph glyph-name="D" unicode="D" horiz-adv-x="1019" 
d="M304 1200l3.99902 -3.99805v-4l-24 -72h4c36.667 24 83.334 36 140.001 36c108 0 217.333 -53.333 328 -160c101.333 -130.667 152 -238.667 152 -324v-4c0 -6.66699 -66.667 -25.334 -200 -56.001v4c-26 111.333 -55.333 198 -88 260c-46 92.667 -139.333 162 -280 208
l-60 8h-4c-24 -90.667 -36 -185.334 -36 -284.001v-64c0 -182.667 52 -381.334 156 -596.001l-240 -128c-34.667 130 -52 252.667 -52 368v84c0 260.667 65.333 503.334 196 728.001h4zM883.999 620.002h4c8 0 12 -28 12 -84c0 -246 -128 -415.333 -384 -508l-120 -28l-4 4
l36 288h36c154.667 0 276 64 364 192c37.333 58 56 103.333 56 136z" />
    <glyph glyph-name="E" unicode="E" horiz-adv-x="1071" 
d="M333 1180l4.00195 -0.000976562l-28 -104c70.667 58.667 172 88 304 88h60c153.333 -5.33301 234.666 -16 243.999 -32l-68 -248h-12c-140.667 101.333 -268.667 152 -384 152h-20c-96 -2.66699 -144 -14.667 -144 -36c-16 -52.667 -24 -119.334 -24 -200.001v-100h4
c88 48 176 72 264 72h8c154.667 -2.66699 245.334 -14.667 272.001 -36c-37.333 -139.333 -60 -214 -68 -224c-134 82.667 -270 124 -408 124h-20l-48 -4c0 -101.333 41.333 -234.666 124 -399.999c0 -22 45.333 -40.667 136 -56h88c111.333 0 216.666 50.667 315.999 152
v-4c-58.667 -206.667 -92 -314.667 -100 -324h-24c-144.667 0 -283.334 49.333 -416.001 148l-228 -148v4c-40 159.333 -60 294 -60 404v68c0 286.667 76 521.334 228 704.001z" />
    <glyph glyph-name="F" unicode="F" horiz-adv-x="985" 
d="M605 1181l83.998 0.000976562c61.333 0 116 -6.66699 164 -20l-32 -220l-104 52c-71.333 32 -159.333 48 -264 48h-32c-104 0 -156 -14.667 -156 -44c-13.333 -44.667 -20 -104.667 -20 -180v-112l4 -28c90 56 186 84 288 84h20c86 0 156.667 -8 212 -24l-60 -208
c-102 77.333 -206 116 -312 116h-8c-47.333 0 -92.666 -9.33301 -135.999 -28c21.333 -140.667 57.333 -270 108 -388l52 -124l-252 -104c-32 138 -48 266 -48 384v120c0 189.333 36 350.666 108 483.999l4 12h-4l-72 -24v4c50.667 64 93.334 102.667 128.001 116
c9.33301 18.667 16 28 20 28l4 -16c94 48 195.333 72 304 72z" />
    <glyph glyph-name="G" unicode="G" horiz-adv-x="1112" 
d="M713 1188l11.999 0.000976562c66.667 0 140 -6.66699 220 -20v-8c-51.333 -132.667 -87.333 -216.667 -108 -252c-108 77.333 -222.667 116 -344 116h-20c-56 0 -117.333 -24 -184 -72c-32 -23.333 -48 -50 -48 -80c-7.33301 -18.667 -12.666 -58.667 -15.999 -120
c0 -158.667 81.333 -312 244 -460c45.333 -24 77.333 -36 96 -36h36c55.333 0 103.333 22.667 144 68v64c0 86 -22.667 183.333 -68 292l236 164c15.333 -20 28.666 -66.667 39.999 -140l4 -68v-40c0 -186 -89.333 -378 -268 -576h-4v4c37.333 116 56 193.333 56 232v4h-4
c-114.667 -173.333 -177.334 -260 -188.001 -260c-77.333 13.333 -142.666 37.333 -195.999 72c-59.333 43.333 -104.666 90 -135.999 140c-54 75.333 -87.333 155.333 -100 240c-7.33301 11.333 -11.333 32.666 -12 63.999v48c0 237.333 76 421.333 228 552l72 40v-4
c-39.333 -42 -70 -80.667 -92 -116h4c103.333 101.333 235.333 152 396 152z" />
    <glyph glyph-name="H" unicode="H" horiz-adv-x="1112" 
d="M956 1184c16 -78 24 -184.665 24 -319.998c0 -272 -80 -533.333 -240 -784l-44 -48v8c56 146 84 314 84 504l-4 128h-8l-84 -164h-12c-116.667 106.667 -222 160 -316 160c-52 -4 -80 -9.33301 -84 -16c0 -48.667 36 -167.334 108 -356.001l76 -140l-264 -156
c-53.333 155.333 -80 308.666 -80 459.999v96c0 188 54.667 389.333 164 604h4v-4c-18.667 -99.333 -28 -190 -28 -272c2.66699 -88 8 -154.667 16 -200c91.333 53.333 202 80 332 80h76l88 -4c0 49.333 -26.667 165.333 -80 348z" />
    <glyph glyph-name="I" unicode="I" horiz-adv-x="569" 
d="M400 1184c16 -55.333 24 -137.999 24 -247.999v-56c0 -246 -72 -539.333 -216 -880h-8c16 96.667 24 192.667 24 288c0 275.333 -37.333 532.666 -112 771.999z" />
    <glyph glyph-name="J" unicode="J" horiz-adv-x="940" 
d="M705 1184c66.667 -114.667 100.001 -262.668 100.001 -444.001v-44c0 -164 -46.667 -373.333 -140 -628h24l60 4v-8c-81.333 -42.667 -177.333 -64 -288 -64h-8c-126.667 0 -245.334 60 -356.001 180l224 208l4 -4v-28c0 -121.333 64 -210.666 192 -267.999l84 -16v4
c37.333 77.333 56 165.333 56 264v64c0 184.667 -76 404.667 -228 660c174 80 266 120 276 120z" />
    <glyph glyph-name="K" unicode="K" horiz-adv-x="1285" 
d="M403 1196l4.00098 -4c-10.667 -42 -16 -131.333 -16 -268v-20l8 -180c184.667 96 322 249.333 412 460l4 4h4l232 -108c-120.667 -183.333 -255.334 -312.666 -404.001 -387.999v-4c84 -21.333 178.667 -81.333 284 -180c114 -126 187.333 -248.667 220 -368l8 -28
l-276 -112l-4 4v32c0 257.333 -78.667 462.666 -236 615.999l-36 20c-44 -26 -108 -50 -192 -72c0 -69.333 38.667 -225.333 116 -468l-260 -128c-34.667 148 -52 285.333 -52 412v168h-4c-32 0 -81.333 6.66699 -148 20v8c30 0 83.333 12 160 36
c0 155.333 54.667 334 164 536z" />
    <glyph glyph-name="L" unicode="L" horiz-adv-x="970" 
d="M292 1191v-3.99902c-16 -94 -24 -180.667 -24 -260v-76c0 -252.667 62.667 -487.334 188 -704.001l-264 -132c-48 147.333 -72 287.333 -72 420v96c0 207.333 56 427.333 168 660h4zM852 311.001h4.00098c-32 -200 -50.667 -300 -56 -300l-180 -4h-96
c-82 0 -155.333 10.667 -220 32v8c149.333 22 302.666 87.333 459.999 196z" />
    <glyph glyph-name="M" unicode="M" horiz-adv-x="1367" 
d="M308 1184l8 0.000976562l-12 -44c137.333 -66.667 257.333 -181.334 360 -344.001c101.333 172.667 230.666 302 387.999 388h8l84 -252l-92 -44v-8c120 -174 180 -354 180 -540v-56c-13.333 -168.667 -30.666 -263.334 -51.999 -284.001
c-138.667 50.667 -212 80 -220 88c74.667 158.667 112 321.334 112 488.001v16c0 87.333 -20 178 -60 272c-56.667 -24 -146 -97.333 -268 -220v-4c69.333 -166 104 -263.333 104 -292l-260 -324h-4c16 78 24 166 24 264v32c0 46.667 -4 94.667 -12 144
c-23.333 -24.667 -59.333 -78 -108 -160h-4v4c0 42.667 28 142.667 84 300c-58 198.667 -147.333 366.667 -268 504c-24 -104 -36 -206.667 -36 -308c0 -247.333 54.667 -482 164 -704l-268 -96c-32 115.333 -48 223.333 -48 324v84c0 228.667 65.333 486 196 772z" />
    <glyph glyph-name="N" unicode="N" horiz-adv-x="1090" 
d="M868 1196c58.667 -142.667 87.999 -309.331 87.999 -499.998c0 -220.667 -56 -434 -168 -640h-8l20 112c-82.667 129.333 -172 253.333 -268 372c-115.333 129.333 -200.666 214.666 -255.999 255.999h-4v-44c0 -214 52 -422 156 -624l-272 -128
c-24 111.333 -36 226 -36 344v76c0 143.333 25.333 288.666 76 435.999c-48.667 28 -74 45.333 -76 52c109.333 157.333 164 240 164 248h8c158.667 -170 272 -323.333 340 -460c112 -222 168 -375.333 168 -460h4l4 20c0 332.667 -62.667 608.667 -188 828z" />
    <glyph glyph-name="O" unicode="O" horiz-adv-x="1157" 
d="M628 1188c83.333 -34 163.332 -89.999 239.999 -167.999c104 -134 156 -250 156 -348v-12c0 -219.333 -73.333 -395.333 -220 -528c-75.333 -58.667 -140.666 -94.667 -195.999 -108c109.333 120 174.666 217.333 195.999 292c16 59.333 24 116.666 24 171.999v60
c0 102.667 -52 213.334 -156 332.001c-56.667 48.667 -110 78 -160 88l-12 12c76.667 131.333 119.334 200.666 128.001 207.999zM551.999 1164c-92 -89.333 -157.333 -170.667 -196 -244c-34.667 -85.333 -52 -180 -52 -284c0 -182.667 89.333 -314.667 268 -396
c38 -16 74 -24 108 -24h28v-8l-152 -208h-4c-172 50 -292 127.333 -360 232c-53.333 76 -80 138.667 -80 188v80c0 199.333 72 375.333 216 528c91.333 78.667 166 124 224 136z" />
    <glyph glyph-name="P" unicode="P" horiz-adv-x="955" 
d="M276 1176l8 -0.000976562c-32 -122.667 -48 -232 -48 -328v-76c0 -246.667 65.333 -474.667 196 -684c0 -5.33301 -84 -34.666 -252 -87.999c-45.333 161.333 -68 312 -68 452v96c0 208.667 54.667 418 164 628zM588 1176c84.667 -21.333 143.333 -54.667 176 -100
c36 -72.667 56 -138 60 -196h-8c-35.333 85.333 -79.333 128 -132 128h-36c-62 0 -155.333 -68 -280 -204c-69.333 130.667 -104 204 -104 220c114.667 101.333 222.667 152 324 152zM787.999 839.998l4 -4.00098v-4c0 -219.333 -78.667 -364.666 -236 -435.999
c-65.333 -24 -114.666 -36 -147.999 -36l-144 248h8c62 -34.667 112.667 -52 152 -52h48c101.333 0 198.666 78.667 291.999 236c10.667 32 18.667 48 24 48z" />
    <glyph glyph-name="Q" unicode="Q" horiz-adv-x="1060" 
d="M580 1189c234.667 -130.667 352 -298.666 352 -503.999v-83c0 -181.333 -86.667 -331.333 -260 -450c-36.667 -24 -74 -40.667 -112 -50c133.333 137.333 200 276.333 200 417c-8 105.333 -21.333 181.666 -40 228.999c-34.667 89.333 -92 157.333 -172 204l-84 45
c68 119.333 106.667 183.333 116 192zM508 1177l0.000976562 -5.00195c-129.333 -140 -196 -237 -200 -291c-18.667 -45.333 -28 -112 -28 -200c13.333 -107.333 44 -194.666 92 -261.999c81.333 -94.667 172 -142 272 -142h4v-4
c-87.333 -126.667 -135.333 -190.667 -144 -192c-79.333 12 -154 47 -224 105c-90.667 101.333 -141.334 187.333 -152.001 258c-10.667 20.667 -16 44 -16 70c0 220 57.333 389.333 172 508c67.333 72.667 142 124.334 224 155.001zM760.001 130.999h3.99805
c44.667 0 94 -22.333 148 -67c-56 -93.333 -92 -148.333 -108 -165c-59.333 82.667 -144.666 124 -255.999 124v5c46.667 68.667 117.334 103 212.001 103z" />
    <glyph glyph-name="R" unicode="R" horiz-adv-x="1090" 
d="M300 1184h8.00195l-36 -180h4l200 180c179.333 0 300.666 -57.333 363.999 -172c18.667 -36 28 -80 28 -132c0 -78 -18.667 -148.667 -56 -212l4 68v24c0 87.333 -56 150 -168 188c-46 13.333 -86 20 -120 20h-32c-99.333 0 -178 -17.333 -236 -52l-4 -108v-136
c66 -72 136.667 -108 212 -108c112 0 212 50.667 300 152h8v-4c0 -86.667 -42.667 -173.334 -128 -260.001c138 -64 240.667 -181.333 308 -352c-2 -4.66699 -76.667 -38 -224 -100l-4 4v32c0 138 -49.333 262 -148 372h-4c-66 -29.333 -122 -44 -168 -44l-148 232
c7.33301 -137.333 56.666 -298.666 147.999 -483.999l-240 -104c-37.333 142.667 -56 272 -56 388v96c0 237.333 62.667 468 188 692z" />
    <glyph glyph-name="S" unicode="S" horiz-adv-x="970" 
d="M616 1180l48 -0.000976562c61.333 0 133.333 -12 216 -36v-4c-69.333 -176 -108 -264 -116 -264c-109.333 64 -212 96 -308 96h-28c-39.333 0 -88.666 -17.333 -147.999 -52v-4c145.333 -34 257.333 -94 336 -180c54 -45.333 106 -102.666 156 -171.999
c58.667 -92.667 88 -144.667 88 -156l-268 -156l-4 4v24c0 217.333 -90.667 393.333 -272 528l-96 56c-40.667 -53.333 -67.334 -105.333 -80.001 -156h-8v72c0 36 6.66699 73.333 20 112c-43.333 16.667 -74 26 -92 28v8l48 4h56c59.333 101.333 166 180 320 236
c36.667 8 80.667 12 132 12zM852 375.999h8v-4c0 -96 -40 -193.333 -120 -292c-66 -53.333 -155.333 -80 -268 -80h-44c-81.333 0 -161.333 10.667 -240 32l-60 312h4c145.333 -104 270.666 -156 375.999 -156h44c102.667 0 193.334 48 272.001 144z" />
    <glyph glyph-name="T" unicode="T" horiz-adv-x="1037" 
d="M231 1203c94.667 -50.667 197.334 -76.002 308.001 -76.002h68c86.667 0 194.667 21.333 324 64v-4c-72 -125.333 -202.667 -220 -392 -284c-21.333 0 -32 -5.33301 -32 -16c-21.333 -90 -32 -174 -32 -252v-68c0 -176 57.333 -320 172 -432l-320 -128
c-24 66.667 -36 145.334 -36 236.001v68c0 172.667 52 366 156 580h-96c-77.333 0 -164 21.333 -260 64c73.333 144.667 118.666 227.334 135.999 248.001h4z" />
    <glyph glyph-name="U" unicode="U" horiz-adv-x="1090" 
d="M761 1196c109.333 -72 180.001 -121.334 212.001 -148.001c-117.333 -225.333 -176 -448 -176 -668l4 -152h4c48 -3.33301 72 -8.66602 72 -15.999l-120 -188c-69.333 48 -144 72 -224 72h-40c-46.667 0 -81.334 -4 -104.001 -12l20 -72h-4c-37.333 32 -56 52 -56 60
c-40 -13.333 -90.667 -37.333 -152 -72v8c25.333 46.667 60 85.334 104 116.001c-130.667 192 -196 374.667 -196 548v8c0 189.333 40 358.666 120 507.999h4l208 -148v-4c-74.667 -125.333 -112 -296 -112 -512v-8c0 -128 14.667 -244 44 -348h4c90 42.667 178 64 264 64
h112c-85.333 137.333 -128 277.333 -128 420v52c0 160 46.667 324 140 492z" />
    <glyph glyph-name="V" unicode="V" horiz-adv-x="1157" 
d="M1001 1188c24 -56 36 -111.999 36 -167.999v-52c0 -188 -110.667 -428 -332 -720l-156 -180l44 -68h-4c-161.333 60.667 -288 178 -380 352c-69.333 129.333 -104 286.666 -104 471.999v72c0 144 9.33301 216 28 216l316 60
c-69.333 -159.333 -104 -296.666 -104 -411.999v-44c0 -216.667 58.667 -415.334 176 -596.001c147.333 186 226 326 236 420c16 60.667 24 128.667 24 204c0 134.667 -38.667 276 -116 424v4z" />
    <glyph glyph-name="W" unicode="W" horiz-adv-x="1360" 
d="M1216 1196c13.333 -52.667 19.998 -111.334 19.998 -176.001v-52c0 -238 -86.667 -456.667 -260 -656l-24 -36c34.667 -25.333 76 -48 124 -68v-8l-184 -176c-136.667 97.333 -230 204 -280 320h-4c-109.333 -101.333 -182.666 -158.666 -219.999 -171.999v-4
c20.667 -78.667 39.334 -133.334 56.001 -164.001l-4 -4c-70 58 -110 102 -120 132c-24 -16 -41.333 -24 -52 -24l36 40v4c-128 209.333 -192 425.333 -192 648v108c0 130.667 8 196 24 196l264 -88v-4c-42.667 -156.667 -64 -290 -64 -400v-40l-4 -4l4 -4v-44
c0 -93.333 12 -192 36 -296c92 111.333 152 203.333 180 276c-34.667 119.333 -52 230 -52 332v84l16 160h8c18 -147.333 50 -270 96 -368c2 -13.333 6 -20 12 -20c26.667 106 40 186 40 240v72c0 38.667 -5.33301 90.667 -16 156c123.333 -54 203.333 -95.333 240 -124v-40
c0 -160 -53.333 -324 -160 -492c20 -43.333 80 -108.666 180 -195.999c74.667 160 112 312 112 456v56c0 98 -24 207.333 -72 328z" />
    <glyph glyph-name="X" unicode="X" horiz-adv-x="1142" 
d="M470 1196l4 -4v-4c0 -224.667 36 -418 108 -580h4c109.333 219.333 164 406 164 560l4 4c168 -82.667 253.333 -126.667 256 -132c-28 -210 -134.667 -422 -320 -636c44.667 -78 132.667 -179.333 264 -304l64 -56h-8c-93.333 34.667 -225.333 128 -396 280
c-206 -172.667 -383.333 -280.667 -532 -324c150 130.667 259.333 244 328 340l84 116c-144 183.333 -238.667 362 -284 536l256 204h4z" />
    <glyph glyph-name="Y" unicode="Y" horiz-adv-x="1075" 
d="M937 1188l4 -4v-40c0 -257.333 -41.333 -468 -124 -632c-102.667 -217.333 -260 -388 -472 -512h-8v4c118 150.667 194 274.667 228 372c-138 48.667 -259.333 156.667 -364 324c-57.333 116.667 -89.333 235.334 -96 356.001l268 56l4 -4v-4
c-10.667 -58.667 -16 -113.334 -16 -164.001v-56c0 -149.333 64 -296 192 -440l28 -24h4c61.333 154.667 92 296 92 424v48c0 38.667 -5.33301 98.667 -16 180z" />
    <glyph glyph-name="Z" unicode="Z" horiz-adv-x="1150" 
d="M486 1192h3.99902c182 0 340.667 -34.667 476 -104v-8l-20 4h-44c-290.667 0 -541.334 -85.333 -752.001 -256h-4c54.667 224 85.334 336 92.001 336c90.667 18.667 173.334 28 248.001 28zM881.999 1056v-4c-145.333 -126.667 -230.666 -218.667 -255.999 -276
c-129.333 -193.333 -204 -380 -224 -560l-4 -20c96 48 220 72 372 72h24c80.667 0 156.667 -6.66699 228 -20c-81.333 -156 -126.666 -238.667 -135.999 -248c-116.667 64 -243.334 96 -380.001 96h-28c-96 0 -204 -21.333 -324 -64c43.333 42 95.333 82 156 120l-212 72v8
c73.333 152.667 170.666 304.667 291.999 456c178.667 203.333 342.667 326 492 368z" />
    <glyph glyph-name="bracketleft" unicode="[" horiz-adv-x="581" 
d="M482 1200l4 0.00195312v-4c-56 -76 -105.333 -181.333 -148 -316c-24 -96.667 -36 -179.334 -36 -248.001v-44c0 -158.667 29.333 -321.334 88 -488.001l-140 -100c-61.333 144 -92 290.667 -92 440v32c0 253.333 104 493.333 312 720z" />
    <glyph glyph-name="backslash" unicode="\" horiz-adv-x="730" 
d="M83 1187c168.667 -267.333 310 -520.666 424 -759.999c56 -120 109.333 -248 160 -384l-132 -28c-72.667 293.333 -198 630.666 -376 1012c-50.667 98 -76 151.333 -76 160z" />
    <glyph glyph-name="bracketright" unicode="]" horiz-adv-x="513" 
d="M290 1200c69.333 -156.667 104 -314 104 -472v-32c0 -170 -61.333 -356.667 -184 -560c-44.667 -62 -83.334 -107.333 -116.001 -136h-4v4c114.667 188 172 370.667 172 548v48c0 125.333 -29.333 268 -88 428c68.667 112 107.334 169.333 116.001 172z" />
    <glyph glyph-name="asciicircum" unicode="^" horiz-adv-x="994" 
d="M472 1257l218 -198h-47l-158 140l-201 -140h-48l221 198h15z" />
    <glyph glyph-name="underscore" unicode="_" horiz-adv-x="974" 
d="M922 -65h-862v46h862v-46z" />
    <glyph glyph-name="grave" unicode="`" horiz-adv-x="929" 
d="M502 1315l-190 -336l128 365z" />
    <glyph glyph-name="a" unicode="a" horiz-adv-x="768" 
d="M533 828h8c1.33301 -158 46.666 -403.333 135.999 -736l-176 -76c-21.333 57.333 -32 104 -32 140l-168 -156c-82 46.667 -139.333 104 -172 172c-21.333 50 -32 91.333 -32 124v12c0 162.667 45.333 284 136 364c96.667 61.333 172.667 92 228 92v-8
c-61.333 -20.667 -105.333 -54 -132 -100c-48 -51.333 -72 -118 -72 -200v-64c0 -92.667 33.333 -166 100 -220l28 -8h24c16.667 0 35.334 8 56.001 24l-4 48v36c0 192 24 377.333 72 556z" />
    <glyph glyph-name="b" unicode="b" horiz-adv-x="813" 
d="M181 1127h4.00098c17.333 0 84 -20 200 -60v-4c-32 -104 -61.333 -230.667 -88 -380h4l276 100c77.333 -45.333 116 -117.333 116 -216v-36c0 -140 -69.333 -274.667 -208 -404c-120.667 -80 -235.334 -120 -344.001 -120h-12v8l72 20c-56 136 -84 334.667 -84 596l-4 28
c0 168 22.667 324 68 468zM293.001 651c-13.333 -32.667 -30.667 -136.667 -52 -312l-16 -292c128 59.333 222.667 150 284 272c18.667 52.667 28 90 28 112v20c0 84 -36 142.667 -108 176c-42 16 -87.333 24 -136 24z" />
    <glyph glyph-name="c" unicode="c" horiz-adv-x="730" 
d="M445 824l31.999 -0.000976562c101.333 -9.33301 152 -22.666 152 -39.999c-21.333 -104 -37.333 -169.333 -48 -196c-70 53.333 -134 80 -192 80h-32c-32.667 0 -78 -13.333 -136 -40c42.667 130.667 117.334 196 224.001 196zM224.999 767.999l4.00098 -3.99805h4
c-18.667 -67.333 -28 -123.333 -28 -168v-24c0 -181.333 58.667 -296 176 -344c47.333 -21.333 96.666 -32 147.999 -32h76l8 -8c-43.333 -112.667 -70 -175.334 -80 -188.001h-4c-102 -0 -204.667 37.333 -308 112c-82.667 87.333 -124 188.666 -124 303.999
c0 131.333 38.667 246 116 344z" />
    <glyph glyph-name="d" unicode="d" horiz-adv-x="805" 
d="M506 1125c42.667 -32.667 94.668 -139.333 156.001 -320c26.667 -100.667 40 -190 40 -268v-64c0 -154 -50.667 -302 -152 -444h36v-8h-20c-23.333 0 -39.333 -12 -48 -36h-8l8 32h-72c-144 0 -252 66.667 -324 200c-21.333 52 -32 100 -32 144v56
c0 103.333 49.333 207.333 148 312l56 36c41.333 -8.66699 110.666 -38 207.999 -88v4c-36.667 98 -84.667 190 -144 276l-20 28v4zM270.001 369.001l0.000976562 -16c0 -94 40 -182 120 -264c53.333 -40 97.333 -60 132 -60c24 110 36 196.667 36 260v80
c0 70.667 -13.333 158.667 -40 264h-32c-92.667 0 -159.334 -49.333 -200.001 -148c-10.667 -33.333 -16 -72 -16 -116z" />
    <glyph glyph-name="e" unicode="e" horiz-adv-x="790" 
d="M433 844l-55.999 -48h4l64 12h28c94 0 154 -32 180 -96c24 -49.333 36 -88 36 -116v-4c0 -80 -64 -150.667 -192 -212c-55.333 -23.333 -119.333 -43.333 -192 -60c70.667 -88 154.667 -132 252 -132h80l40 4v-4l-176 -180c-91.333 19.333 -164.666 47.333 -219.999 84
c-80.667 46.667 -139.334 116 -176.001 208c-5.33301 11.333 -8 32.666 -8 63.999v12c0 180.667 70.667 319.334 212 416.001c59.333 34 100.666 51.333 123.999 52zM241.001 540c0 -77.333 16 -142.667 48 -196c136 81.333 204 169.333 204 264v24
c-8.66699 90.667 -50 136 -124 136h-20c-72 -72.667 -108 -148.667 -108 -228z" />
    <glyph glyph-name="f" unicode="f" horiz-adv-x="760" 
d="M490 1176c78 0 129.999 -17.333 155.999 -52c13.333 -29.333 20 -57.333 20 -84v-8c-21.333 -21.333 -62.666 -44 -123.999 -68c0 48.667 -20 118 -60 208l4 4h4zM449.999 1136l8.00098 -0.000976562c-32 -150 -48 -256.667 -48 -320c76 21.333 156 32 240 32l4 -4
c-38.667 -108 -61.334 -162.667 -68.001 -164l-144 12l-36 -4v-44c0 -179.333 38.667 -360.666 116 -543.999l-208 -100c-21.333 54 -40 139.333 -56 256l-8 120v104c0 62.667 6.66699 128 20 196l-196 -48v4c64.667 56 136.667 102.667 216 140
c44 144.667 94.667 262 152 352c5.33301 0 8 4 8 12z" />
    <glyph glyph-name="g" unicode="g" horiz-adv-x="798" 
d="M551 861c7.33301 0 32.668 -62.666 76.001 -187.999c34.667 -112 52 -230.667 52 -356c0 -130 -30.667 -271.333 -92 -424c-72 -138.667 -148 -208 -228 -208h-16c-40.667 0 -99.334 25.333 -176.001 76c0 14.667 30.667 68 92 160h4c42 -117.333 84.667 -176 128 -176
h16c77.333 107.333 116 234 116 380v72c0 145.333 -41.333 326.666 -124 543.999zM403.002 785.001v-4c-117.333 -126.667 -176 -237.334 -176 -332.001c0 -136.667 62.667 -218 188 -244c18 -8 40.667 -12 68 -12h16l8 -8c-40.667 -91.333 -70 -151.333 -88 -180
c-88.667 0 -170 37.333 -244 112c-61.333 71.333 -92 162 -92 272c16.667 116.667 47.334 202 92.001 256c75.333 80.667 138 123.334 188 128.001c7.33301 6.66699 20.666 10.667 39.999 12z" />
    <glyph glyph-name="h" unicode="h" horiz-adv-x="873" 
d="M317 1100h4c-34.667 -172 -52 -309.333 -52 -412v-88c82.667 104 180 156 292 156h20c63.333 0 123.333 -16 180 -48c-66.667 -58.667 -100 -90.667 -100 -96l-4 -92v-76c0 -118 29.333 -230 88 -336h-4l-216 -88c-6 0 -11.333 33.333 -16 100v48
c0 136 32 273.333 96 412c-51.333 26.667 -95.333 40 -132 40h-28c-64 0 -122.667 -29.333 -176 -88c0 -131.333 30.667 -294 92 -488l-220 -44c-24 96.667 -36 210 -36 340v76c0 198 49.333 396.667 148 596c38.667 58.667 60 88 64 88z" />
    <glyph glyph-name="i" unicode="i" horiz-adv-x="408" 
d="M226 1132c21.333 -43.333 32 -83.333 32 -120v-4c0 -71.333 -33.333 -131.333 -100 -180h-4c0 31.333 -20 107.333 -60 228zM270 744c21.333 -58 32 -150 32 -276v-12c0 -146 -48 -298 -144 -456h-8l4 220c0 192 -21.333 349.333 -64 472z" />
    <glyph glyph-name="j" unicode="j" horiz-adv-x="566" 
d="M470 940l4 -32c0 -70 -34.667 -139.333 -104 -208h-4v8c0 50 -9.33301 116.667 -28 200c60.667 21.333 104.667 32 132 32zM424 667c24 -90.667 36 -188 36 -292c0 -221.333 -69.333 -392 -208 -512c-38 -32.667 -67.333 -50 -88 -52c101.333 82.667 152 222.667 152 420
v28c0 120.667 -14.667 242 -44 364zM150 -128l0.000976562 -4l-12 -68v-8c0 -44.667 17.333 -74 52 -88v-8l-48 -4c-52.667 0 -87.334 24 -104.001 72v8z" />
    <glyph glyph-name="k" unicode="k" horiz-adv-x="835" 
d="M274 1064l8 -0.00195312c-24 -152.667 -36 -282 -36 -388l12 -208h4c36.667 85.333 123.334 193.333 260.001 324c28 21.333 45.333 32 52 32c88 -97.333 132 -153.333 132 -168c-94.667 -20 -184 -62.667 -268 -128v-4c48 -130.667 144 -236 288 -316l24 -8
c-14 -36.667 -51.333 -95.334 -112 -176.001h-4c-74.667 58.667 -125.334 121.334 -152.001 188.001c-56 105.333 -84 200 -84 284c-43.333 -31.333 -86 -72.666 -128 -123.999c24 -149.333 46.667 -258.666 68 -327.999l-216 -44c-13.333 58.667 -20 140 -20 244l-4 16
l4 28c0 236.667 44 470 132 700z" />
    <glyph glyph-name="l" unicode="l" horiz-adv-x="528" 
d="M290 1092l4 0.000976562c82.667 -178.667 124 -361.334 124 -548.001v-40c0 -202 -44 -367.333 -132 -496h-4c8 56.667 12 110 12 160v8c0 285.333 -62.667 552 -188 800l-8 28z" />
    <glyph glyph-name="m" unicode="m" horiz-adv-x="1202" 
d="M97 768l7.99902 -0.00292969c55.333 -46 99.333 -94 132 -144c28.667 45.333 80.667 80 156 104l40 12l56 -64v-8h-8v-4c12.667 -1.33301 35.334 -14.666 68.001 -39.999c72 82.667 146.667 124 224 124c34.667 -38 52 -60.667 52 -68h-4l-24 4h-4v-4
c48.667 -7.33301 112.667 -55.333 192 -144c72 -96.667 108 -220.667 108 -372c0 -109.333 -5.33301 -164 -16 -164c-130.667 14.667 -196 25.334 -196 32.001c13.333 77.333 20 137.333 20 180v84c0 170.667 -52 297.334 -156 380.001h-4c-42 0 -96.667 -26.667 -164 -80
c98.667 -118 148 -264.667 148 -440v-20l-4 -140l-4 -4h-4c-133.333 16.667 -200 28.667 -200 36c16 99.333 24 176.666 24 231.999v72c0 150.667 -37.333 261.334 -112 332.001c-58 -8.66699 -115.333 -32.667 -172 -72c74.667 -140 112 -277.333 112 -412v-44l-4 -140
l-4 -4h-4l-204 28c16 74.667 24 152 24 232v68c0 150 -25.333 299.333 -76 448z" />
    <glyph glyph-name="n" unicode="n" horiz-adv-x="828" 
d="M105 760l4.00195 0.000976562c55.333 -65.333 96.666 -122.666 123.999 -171.999c35.333 64 100.666 113.333 195.999 148h4l60 -72v-4h-12c162.667 -108 244 -249.333 244 -424v-56c-5.33301 -109.333 -13.333 -164 -24 -164c-94 5.33301 -152.667 10.666 -176 15.999
c10.667 78 16 176.667 16 296c0 137.333 -32 245.333 -96 324c-54 -8.66699 -120.667 -40.667 -200 -96c64 -129.333 96 -264 96 -404v-88c0 -42.667 -4 -64 -12 -64c-130.667 5.33301 -196 10.666 -196 15.999c16 94.667 24 178.667 24 252v120c0 100 -17.333 224 -52 372z
" />
    <glyph glyph-name="o" unicode="o" horiz-adv-x="798" 
d="M418 792c130.667 -64.667 214.667 -148.668 252 -252.001c16 -38 24 -72.667 24 -104v-24c0 -158 -74.667 -286 -224 -384l-48 -24v4c96 124.667 144 227.334 144 308.001v32c0 71.333 -44 142 -132 212c-65.333 29.333 -113.333 44 -144 44l-4 4v4
c82.667 120 126.667 180 132 180zM366 783.999v-4c-104 -116 -156 -218.667 -156 -308v-52c0 -62 41.333 -124.667 124 -188c58.667 -29.333 112 -44 160 -44h12v-8l-128 -180c-54 0 -116.667 33.333 -188 100c-61.333 85.333 -92 165.333 -92 240v40
c0 165.333 86.667 300 260 404h8z" />
    <glyph glyph-name="p" unicode="p" horiz-adv-x="783" 
d="M221 753h8.00098v-64l4 -176v-4h4c96 141.333 148 212 156 212c86 0 164.667 -54.667 236 -164c32 -70.667 48 -134.667 48 -192v-40c-4.66699 -79.333 -47.334 -162 -128.001 -248c-65.333 -48 -137.333 -72 -216 -72h-24c32 -111.333 65.333 -196.666 100 -255.999
l-208 -64c-58.667 151.333 -88 326 -88 524c0 171.333 36 352.666 108 543.999zM237.001 465c0 -86 22.667 -234 68 -444c24.667 0 66 16 124 48c69.333 58 104 123.333 104 196v20c0 106 -34.667 183.333 -104 232l-36 8h-28c-47.333 0 -90 -20 -128 -60z" />
    <glyph glyph-name="q" unicode="q" horiz-adv-x="798" 
d="M469 819l135.999 -147.999h4l52 104h8c-40 -172 -60 -354.667 -60 -548c0 -182.667 28 -348 84 -496l-212 -60c-21.333 82.667 -32 186.667 -32 312c0 224 48 442.667 144 656c-9.33301 21.333 -26.666 32 -51.999 32h-8c-96.667 0 -182 -88 -256 -264
c-13.333 -30 -20 -64.667 -20 -104v-20c0 -82.667 52 -153.334 156 -212.001v-8c-74.667 0 -156 29.333 -244 88c-48 52.667 -72 122 -72 208v64c0 178 100 306 300 384z" />
    <glyph glyph-name="r" unicode="r" horiz-adv-x="700" 
d="M595 836l3.99805 -4l-48 -204h-4c-51.333 48 -102 72 -152 72c-45.333 -7.33301 -68 -14 -68 -20c24 -79.333 36 -151.333 36 -216c0 -154 -48 -308.667 -144 -464h-8c10.667 60 17.334 126.667 20.001 200c0 191.333 -49.333 367.333 -148 528
c3.33301 6.66699 55.333 41.334 156 104.001h4c38.667 -50.667 62.667 -93.334 72 -128.001h4c36.667 88 119.334 132 248.001 132h28z" />
    <glyph glyph-name="s" unicode="s" horiz-adv-x="768" 
d="M402 808l32.002 -0.000976562c79.333 0 156.666 -33.333 231.999 -100v-4c-34 -106.667 -54 -160 -60 -160c-82.667 77.333 -168 116 -256 116c-86.667 0 -150.667 -29.333 -192 -88c209.333 0 368 -80 476 -240c34.667 -67.333 52 -111.333 52 -132v-4
c-46.667 -50 -100 -102 -160 -156h-4l-12 68c-68.667 -72 -136.667 -108 -204 -108h-32c-72.667 0 -136.667 21.333 -192 64c42.667 130.667 66.667 196 72 196h4c80 -74.667 165.333 -112 256 -112h4c46.667 2.66699 72 9.33398 76 20.001c-12 61.333 -57.333 136 -136 224
c-82.667 79.333 -166.667 130 -252 152l-8 8c93.333 170.667 194.666 256 303.999 256z" />
    <glyph glyph-name="t" unicode="t" horiz-adv-x="873" 
d="M496 1107v-3.99805c-16 -116 -24 -209.333 -24 -280c108.667 8 212.667 12 312 12l12 -4c-56 -130.667 -89.333 -196 -100 -196c-75.333 24 -151.333 42.667 -228 56v-4c0 -228 37.333 -413.333 112 -556v-4c-2 -5.33301 -66 -45.333 -192 -120
c-53.333 129.333 -80 258.666 -80 387.999v84c0 63.333 9.33301 138 28 224h-12c-110.667 0 -198.667 -13.333 -264 -40v4c81.333 61.333 181.333 106.666 300 135.999c46 138 91.333 239.333 136 304z" />
    <glyph glyph-name="u" unicode="u" horiz-adv-x="783" 
d="M142 749l180.003 -64.001v-4c-32 -66 -48 -147.333 -48 -244v-24c0 -170 32 -275.333 96 -316l28 -8c26 0 68.667 14.667 128 44c-34.667 94 -52 179.333 -52 256v52c13.333 205.333 34.666 308 63.999 308c105.333 -36 160 -58.667 164 -68
c-48 -131.333 -72 -256.666 -72 -375.999v-96c0 -46 9.33301 -119.333 28 -220l-4 -4h-4c-38.667 27.333 -76 67.333 -112 120c-92 -58.667 -146.667 -88 -164 -88c-52.667 6.66699 -107.334 34.667 -164.001 84c-80 97.333 -120 204 -120 320v76
c13.333 168 30.666 252 51.999 252z" />
    <glyph glyph-name="v" unicode="v" horiz-adv-x="790" 
d="M267 776l4 -0.000976562c45.333 -98.667 68 -248 68 -448c-2.66699 -91.333 -8 -162 -16 -212h4c122.667 101.333 184 232 184 392v12c0 72 -8 145.333 -24 220c0 6.66699 64 17.334 192 32.001v-4l12 -120v-76c0 -205.333 -89.333 -357.333 -268 -456l-108 -36
c0 -23.333 -8 -47.333 -24 -72h-4v4c0 60 -41.333 226.667 -124 500c-36.667 83.333 -68.667 148.666 -96 195.999c38 18.667 104.667 41.334 200 68.001z" />
    <glyph glyph-name="w" unicode="w" horiz-adv-x="1172" 
d="M993 787c61.333 -90.667 92 -184.003 92 -280.003c0 -117.333 -44 -228 -132 -332c-90.667 -105.333 -166.667 -174.666 -228 -207.999l-24 -12v4l52 68v4h-4c-136 0 -221.333 68 -256 204c-10.667 40.667 -16 79.334 -16 116.001v52c0 90.667 13.333 189.334 40 296.001
l184 20l4 -4v-4c-40 -170 -60 -288.667 -60 -356v-88c0 -118 37.333 -186 112 -204l20 -4c80 129.333 120 241.333 120 336v12c0 110.667 -24 198.667 -72 264v4c102 74.667 158 112 168 112zM329 726.997v-3.99902c-37.333 -142 -56 -259.333 -56 -352v-36
c0 -136.667 48 -219.334 144 -248.001l32 -4l84 16v-4c-49.333 -58.667 -105.333 -88 -168 -88c-108 0 -190.667 85.333 -248 256c-13.333 69.333 -20 124 -20 164v68c0 107.333 9.33301 170 28 188z" />
    <glyph glyph-name="x" unicode="x" horiz-adv-x="888" 
d="M663 836l8 -0.000976562v-72c0 -153.333 -41.333 -317.333 -124 -492c56.667 -79.333 112.667 -142 168 -188l80 -64v-4c-86 10.667 -191.333 57.334 -316 140.001l-12 12c-83.333 -82.667 -156.666 -133.334 -219.999 -152.001l-52 -16l-128 160v4
c83.333 17.333 171.333 64 264 140v4c-88.667 110 -152.667 232.667 -192 368c114.667 61.333 177.334 92 188.001 92c25.333 -104 66.666 -216 123.999 -336h4c101.333 126.667 170.666 261.334 207.999 404.001z" />
    <glyph glyph-name="y" unicode="y" horiz-adv-x="820" 
d="M705 782h4l4 -180v-32c0 -238.667 -68 -462.667 -204 -672c-108.667 -134 -200.667 -212.667 -276 -236c108 112.667 174.667 212.667 200 300l16 52l-60 -4h-16c-114 0 -188.667 86.667 -224 260c-10.667 60.667 -16 120.667 -16 180v36c3.33301 160 10 240 20 240
l192 16l4 -4v-4c-24 -150.667 -36 -254.667 -36 -312v-56l-4 -4l4 -4v-40c0 -155.333 41.333 -246 124 -272l20 -4c37.333 138 56 262 56 372v168l-12 140c124 40 192 60 204 60zM181 -86l3.99902 -3.99902l-4 -4v-72c0 -60.667 22.667 -102 68 -124v-12
c-43.333 -18.667 -76.666 -28 -99.999 -28h-32c-45.333 0 -72 41.333 -80 124v20c0.666992 5.33301 48.667 38.666 144 99.999z" />
    <glyph glyph-name="z" unicode="z" horiz-adv-x="783" 
d="M291 776l60 0.000976562c108 0 194.667 -21.333 260 -64c12 26.667 20 40 24 40h4v-4c0 -138 -60 -298 -180 -480c-70 -96.667 -162 -186 -276 -268l-116 184c79.333 41.333 190 126.666 332 255.999c116.667 127.333 182 211.333 196 252h-4
c-111.333 0 -275.333 -60 -492 -180l-4 4c28 168 45.333 252 52 252zM691 232.001l3.99805 -4c-15.333 -125.333 -26 -188 -32 -188c-29.333 13.333 -66.666 20 -111.999 20h-56c-42.667 0 -124 -18.667 -244 -56c130.667 152 277.334 228 440.001 228z" />
    <glyph glyph-name="braceleft" unicode="{" horiz-adv-x="684" 
 />
    <glyph glyph-name="bar" unicode="|" horiz-adv-x="532" 
 />
    <glyph glyph-name="braceright" unicode="}" horiz-adv-x="684" 
 />
    <glyph glyph-name="asciitilde" unicode="~" horiz-adv-x="584" 
d="M463 504l14.999 0.00195312c-0.666992 -44.667 -9.33398 -79.334 -26.001 -104.001s-36.667 -37 -60 -37c-10.667 0 -22.167 2.66699 -34.5 8s-44.166 23.333 -95.499 54c-36 21.333 -61.667 32 -77 32c-16 0 -29.667 -7.33301 -41 -22s-19.333 -38.334 -24 -71.001h-15
c1.33301 46 9.83301 81.167 25.5 105.5s34.167 36.5 55.5 36.5c10.667 0 21.334 -2.66699 32.001 -8c24 -10 55.833 -27.333 95.5 -52s67.5 -37 83.5 -37c17.333 0 32 8.16699 44 24.5s19.333 39.833 22 70.5z" />
    <glyph glyph-name="exclamdown" unicode="&#xa1;" horiz-adv-x="682" 
 />
    <glyph glyph-name="cent" unicode="&#xa2;" 
 />
    <glyph glyph-name="sterling" unicode="&#xa3;" 
 />
    <glyph glyph-name="currency" unicode="&#xa4;" 
 />
    <glyph glyph-name="yen" unicode="&#xa5;" 
 />
    <glyph glyph-name="brokenbar" unicode="&#xa6;" horiz-adv-x="532" 
 />
    <glyph glyph-name="section" unicode="&#xa7;" 
 />
    <glyph glyph-name="dieresis" unicode="&#xa8;" horiz-adv-x="936" 
d="M386 1098c9.33301 0 18.5 -2.33301 27.5 -7s16 -11.334 21 -20.001s7.5 -17.667 7.5 -27c0 -8.66699 -2.5 -17.334 -7.5 -26.001s-11.833 -15.334 -20.5 -20.001s-18 -7 -28 -7c-9.33301 0 -18.333 2.33301 -27 7s-15.5 11.334 -20.5 20.001s-7.5 17.334 -7.5 26.001
c0 9.33301 2.5 18.333 7.5 27s11.833 15.334 20.5 20.001s17.667 7 27 7zM546 1100c9.33301 0 18.166 -2.33301 26.499 -7s14.833 -11.334 19.5 -20.001s7 -17.667 7 -27s-2.33301 -18.333 -7 -27s-11.167 -15.334 -19.5 -20.001s-17.166 -7 -26.499 -7
c-8.66699 0 -17.167 2.33301 -25.5 7s-14.833 11.334 -19.5 20.001s-7 17.667 -7 27s2.33301 18.333 7 27s11.167 15.334 19.5 20.001s16.833 7 25.5 7z" />
    <glyph glyph-name="copyright" unicode="&#xa9;" horiz-adv-x="1509" 
 />
    <glyph glyph-name="ordfeminine" unicode="&#xaa;" horiz-adv-x="758" 
 />
    <glyph glyph-name="guillemotleft" unicode="&#xab;" 
 />
    <glyph glyph-name="logicalnot" unicode="&#xac;" horiz-adv-x="1196" 
 />
    <glyph glyph-name="registered" unicode="&#xae;" horiz-adv-x="1509" 
 />
    <glyph glyph-name="macron" unicode="&#xaf;" horiz-adv-x="1131" 
 />
    <glyph glyph-name="degree" unicode="&#xb0;" horiz-adv-x="351" 
d="M206 1255c36.667 0 67.499 -12.167 92.499 -36.5s37.5 -53.833 37.5 -88.5c0 -34 -12.667 -63.167 -38 -87.5s-56 -36.5 -92 -36.5c-35.333 0 -65.666 12.167 -90.999 36.5s-38 53.5 -38 87.5c0 34.667 12.5 64.167 37.5 88.5s55.5 36.5 91.5 36.5zM208.999 1200
c-22.667 0 -41.834 -6.5 -57.501 -19.5s-23.5 -29.167 -23.5 -48.5c0 -18.667 7.83301 -34.667 23.5 -48s34.834 -20 57.501 -20c22 0 40.833 6.66699 56.5 20s23.5 29.333 23.5 48c0 19.333 -7.83301 35.5 -23.5 48.5s-34.5 19.5 -56.5 19.5z" />
    <glyph glyph-name="plusminus" unicode="&#xb1;" horiz-adv-x="1124" 
 />
    <glyph glyph-name="uni00B2" unicode="&#xb2;" horiz-adv-x="682" 
 />
    <glyph glyph-name="uni00B3" unicode="&#xb3;" horiz-adv-x="682" 
 />
    <glyph glyph-name="acute" unicode="&#xb4;" horiz-adv-x="921" 
d="M440 1255l64 -327l-146 315z" />
    <glyph glyph-name="mu" unicode="&#xb5;" horiz-adv-x="1180" 
 />
    <glyph glyph-name="paragraph" unicode="&#xb6;" horiz-adv-x="1100" 
 />
    <glyph glyph-name="periodcentered" unicode="&#xb7;" horiz-adv-x="569" 
 />
    <glyph glyph-name="periodcentered" unicode="&#x2219;" horiz-adv-x="569" 
 />
    <glyph glyph-name="cedilla" unicode="&#xb8;" horiz-adv-x="682" 
 />
    <glyph glyph-name="uni00B9" unicode="&#xb9;" horiz-adv-x="682" 
 />
    <glyph glyph-name="ordmasculine" unicode="&#xba;" horiz-adv-x="748" 
 />
    <glyph glyph-name="guillemotright" unicode="&#xbb;" 
 />
    <glyph glyph-name="onequarter" unicode="&#xbc;" horiz-adv-x="1708" 
 />
    <glyph glyph-name="onehalf" unicode="&#xbd;" horiz-adv-x="1708" 
 />
    <glyph glyph-name="threequarters" unicode="&#xbe;" horiz-adv-x="1708" 
 />
    <glyph glyph-name="questiondown" unicode="&#xbf;" horiz-adv-x="1251" 
 />
    <glyph glyph-name="Agrave" unicode="&#xc0;" horiz-adv-x="1366" 
 />
    <glyph glyph-name="Aacute" unicode="&#xc1;" horiz-adv-x="1366" 
 />
    <glyph glyph-name="Acircumflex" unicode="&#xc2;" horiz-adv-x="1366" 
 />
    <glyph glyph-name="Atilde" unicode="&#xc3;" horiz-adv-x="1366" 
 />
    <glyph glyph-name="Adieresis" unicode="&#xc4;" horiz-adv-x="1366" 
 />
    <glyph glyph-name="Aring" unicode="&#xc5;" horiz-adv-x="1366" 
 />
    <glyph glyph-name="AE" unicode="&#xc6;" horiz-adv-x="2048" 
 />
    <glyph glyph-name="Ccedilla" unicode="&#xc7;" horiz-adv-x="1479" 
 />
    <glyph glyph-name="Egrave" unicode="&#xc8;" horiz-adv-x="1366" 
 />
    <glyph glyph-name="Eacute" unicode="&#xc9;" horiz-adv-x="1366" 
 />
    <glyph glyph-name="Ecircumflex" unicode="&#xca;" horiz-adv-x="1366" 
 />
    <glyph glyph-name="Edieresis" unicode="&#xcb;" horiz-adv-x="1366" 
 />
    <glyph glyph-name="Igrave" unicode="&#xcc;" horiz-adv-x="569" 
 />
    <glyph glyph-name="Iacute" unicode="&#xcd;" horiz-adv-x="569" 
 />
    <glyph glyph-name="Icircumflex" unicode="&#xce;" horiz-adv-x="569" 
 />
    <glyph glyph-name="Idieresis" unicode="&#xcf;" horiz-adv-x="569" 
 />
    <glyph glyph-name="Eth" unicode="&#xd0;" horiz-adv-x="1479" 
 />
    <glyph glyph-name="Ntilde" unicode="&#xd1;" horiz-adv-x="1479" 
 />
    <glyph glyph-name="Ograve" unicode="&#xd2;" horiz-adv-x="1593" 
 />
    <glyph glyph-name="Oacute" unicode="&#xd3;" horiz-adv-x="1593" 
 />
    <glyph glyph-name="Ocircumflex" unicode="&#xd4;" horiz-adv-x="1593" 
 />
    <glyph glyph-name="Otilde" unicode="&#xd5;" horiz-adv-x="1593" 
 />
    <glyph glyph-name="Odieresis" unicode="&#xd6;" horiz-adv-x="1593" 
 />
    <glyph glyph-name="multiply" unicode="&#xd7;" horiz-adv-x="1196" 
 />
    <glyph glyph-name="Oslash" unicode="&#xd8;" horiz-adv-x="1593" 
 />
    <glyph glyph-name="Ugrave" unicode="&#xd9;" horiz-adv-x="1479" 
 />
    <glyph glyph-name="Uacute" unicode="&#xda;" horiz-adv-x="1479" 
 />
    <glyph glyph-name="Ucircumflex" unicode="&#xdb;" horiz-adv-x="1479" 
 />
    <glyph glyph-name="Udieresis" unicode="&#xdc;" horiz-adv-x="1479" 
 />
    <glyph glyph-name="Yacute" unicode="&#xdd;" horiz-adv-x="1366" 
 />
    <glyph glyph-name="Thorn" unicode="&#xde;" horiz-adv-x="1366" 
 />
    <glyph glyph-name="germandbls" unicode="&#xdf;" horiz-adv-x="1251" 
 />
    <glyph glyph-name="agrave" unicode="&#xe0;" horiz-adv-x="790" 
d="M534 828h8c1.33301 -158 46.666 -403.333 135.999 -736l-176 -76c-21.333 57.333 -32 104 -32 140l-168 -156c-82 46.667 -139.333 104 -172 172c-21.333 50 -32 91.333 -32 124v12c0 162.667 45.333 284 136 364c96.667 61.333 172.667 92 228 92v-8
c-61.333 -20.667 -105.333 -54 -132 -100c-48 -51.333 -72 -118 -72 -200v-64c0 -92.667 33.333 -166 100 -220l28 -8h24c16.667 0 35.334 8 56.001 24l-4 48v36c0 192 24 377.333 72 556zM385 1173l97 -283l-179 200z" />
    <glyph glyph-name="aacute" unicode="&#xe1;" horiz-adv-x="798" 
d="M533 820h8c1.33301 -158 46.666 -403.333 135.999 -736l-176 -76c-21.333 57.333 -32 104 -32 140l-168 -156c-82 46.667 -139.333 104 -172 172c-21.333 50 -32 91.333 -32 124v12c0 162.667 45.333 284 136 364c96.667 61.333 172.667 92 228 92v-8
c-61.333 -20.667 -105.333 -54 -132 -100c-48 -51.333 -72 -118 -72 -200v-64c0 -92.667 33.333 -166 100 -220l28 -8h24c16.667 0 35.334 8 56.001 24l-4 48v36c0 192 24 377.333 72 556zM536 1038l-195 -208l112 260z" />
    <glyph glyph-name="acircumflex" unicode="&#xe2;" horiz-adv-x="779" 
d="M537 828h8c1.33301 -158 46.666 -403.333 135.999 -736l-176 -76c-21.333 57.333 -32 104 -32 140l-168 -156c-82 46.667 -139.333 104 -172 172c-21.333 50 -32 91.333 -32 124v12c0 162.667 45.333 284 136 364c96.667 61.333 172.667 92 228 92v-8
c-61.333 -20.667 -105.333 -54 -132 -100c-48 -51.333 -72 -118 -72 -200v-64c0 -92.667 33.333 -166 100 -220l28 -8h24c16.667 0 35.334 8 56.001 24l-4 48v36c0 192 24 377.333 72 556zM415 1078l168 -175h-36l-131 114l-146 -114h-37l170 175h12z" />
    <glyph glyph-name="atilde" unicode="&#xe3;" 
d="M616 828h8c1.33301 -158 46.666 -403.333 135.999 -736l-176 -76c-21.333 57.333 -32 104 -32 140l-168 -156c-82 46.667 -139.333 104 -172 172c-21.333 50 -32 91.333 -32 124v12c0 162.667 45.333 284 136 364c96.667 61.333 172.667 92 228 92v-8
c-61.333 -20.667 -105.333 -54 -132 -100c-48 -51.333 -72 -118 -72 -200v-64c0 -92.667 33.333 -166 100 -220l28 -8h24c16.667 0 35.334 8 56.001 24l-4 48v36c0 192 24 377.333 72 556zM655 1013l16 -0.000976562c-0.666992 -37.333 -9.5 -66.333 -26.5 -87
s-37.167 -31 -60.5 -31c-11.333 0 -23.333 2.16699 -36 6.5s-45.334 19.5 -98.001 45.5c-36.667 18 -62.667 27 -78 27c-16.667 0 -30.834 -6.16699 -42.501 -18.5s-19.5 -32.166 -23.5 -59.499h-16c1.33301 38.667 10 68.167 26 88.5s35 30.5 57 30.5
c10.667 0 21.334 -2.33301 32.001 -7c24.667 -8 57.334 -22.5 98.001 -43.5s69 -31.5 85 -31.5c18 0 33 7 45 21s19.333 33.667 22 59z" />
    <glyph glyph-name="adieresis" unicode="&#xe4;" horiz-adv-x="798" 
d="M540 828h8c1.33301 -158 46.666 -403.333 135.999 -736l-176 -76c-21.333 57.333 -32 104 -32 140l-168 -156c-82 46.667 -139.333 104 -172 172c-21.333 50 -32 91.333 -32 124v12c0 162.667 45.333 284 136 364c96.667 61.333 172.667 92 228 92v-8
c-61.333 -20.667 -105.333 -54 -132 -100c-48 -51.333 -72 -118 -72 -200v-64c0 -92.667 33.333 -166 100 -220l28 -8h24c16.667 0 35.334 8 56.001 24l-4 48v36c0 192 24 377.333 72 556zM308 1008c9.33301 0 18.333 -2.16699 27 -6.5s15.5 -10.5 20.5 -18.5
s7.5 -16.333 7.5 -25c0 -8 -2.5 -16 -7.5 -24s-11.833 -14.167 -20.5 -18.5s-17.667 -6.5 -27 -6.5s-18.333 2.16699 -27 6.5s-15.5 10.5 -20.5 18.5s-7.5 16 -7.5 24c0 8.66699 2.5 17 7.5 25s11.833 14.167 20.5 18.5s17.667 6.5 27 6.5zM477 1007c10 0 19.667 -2 29 -6
s16.666 -9.66699 21.999 -17s8 -15 8 -23s-2.66699 -15.667 -8 -23s-12.666 -13 -21.999 -17s-19 -6 -29 -6s-19.667 2 -29 6s-16.666 9.66699 -21.999 17s-8 15 -8 23s2.66699 15.667 8 23s12.666 13 21.999 17s19 6 29 6z" />
    <glyph glyph-name="aring" unicode="&#xe5;" horiz-adv-x="745" 
d="M526 821h8c1.33301 -158 46.666 -403.333 135.999 -736l-176 -76c-21.333 57.333 -32 104 -32 140l-168 -156c-82 46.667 -139.333 104 -172 172c-21.333 50 -32 91.333 -32 124v12c0 162.667 45.333 284 136 364c96.667 61.333 172.667 92 228 92v-8
c-61.333 -20.667 -105.333 -54 -132 -100c-48 -51.333 -72 -118 -72 -200v-64c0 -92.667 33.333 -166 100 -220l28 -8h24c16.667 0 35.334 8 56.001 24l-4 48v36c0 192 24 377.333 72 556zM373 999c18 0 32.999 -6.16699 44.999 -18.5s18 -27.166 18 -44.499
s-6.16699 -32.166 -18.5 -44.499s-27.166 -18.5 -44.499 -18.5c-16.667 0 -31.167 6.16699 -43.5 18.5s-18.5 27.166 -18.5 44.499s6 32.166 18 44.499s26.667 18.5 44 18.5zM371.999 1044c-29.333 0 -54.335 -9.83301 -75.002 -29.5s-31 -43.5 -31 -71.5
s10.333 -51.833 31 -71.5s45.667 -29.5 75 -29.5c28.667 0 53.334 9.83301 74.001 29.5s31 43.5 31 71.5s-10.167 51.833 -30.5 71.5s-45.166 29.5 -74.499 29.5z" />
    <glyph glyph-name="ae" unicode="&#xe6;" horiz-adv-x="1821" 
 />
    <glyph glyph-name="ccedilla" unicode="&#xe7;" horiz-adv-x="708" 
d="M468 824l31.999 -0.000976562c101.333 -9.33301 152 -22.666 152 -39.999c-21.333 -104 -37.333 -169.333 -48 -196c-70 53.333 -134 80 -192 80h-32c-32.667 0 -78 -13.333 -136 -40c42.667 130.667 117.334 196 224.001 196zM247.999 767.999l4.00098 -3.99805h4
c-18.667 -67.333 -28 -123.333 -28 -168v-24c0 -181.333 58.667 -296 176 -344c47.333 -21.333 96.666 -32 147.999 -32h76l8 -8c-43.333 -112.667 -70 -175.334 -80 -188.001h-4c-102 -0 -204.667 37.333 -308 112c-82.667 87.333 -124 188.666 -124 303.999
c0 131.333 38.667 246 116 344zM460 37.001l-105 -231l-20 151l7 80h118z" />
    <glyph glyph-name="egrave" unicode="&#xe8;" horiz-adv-x="798" 
d="M440 836l-55.999 -48h4l64 12h28c94 0 154 -32 180 -96c24 -49.333 36 -88 36 -116v-4c0 -80 -64 -150.667 -192 -212c-55.333 -23.333 -119.333 -43.333 -192 -60c70.667 -88 154.667 -132 252 -132h80l40 4v-4l-176 -180c-91.333 19.333 -164.666 47.333 -219.999 84
c-80.667 46.667 -139.334 116 -176.001 208c-5.33301 11.333 -8 32.666 -8 63.999v12c0 180.667 70.667 319.334 212 416.001c59.333 34 100.666 51.333 123.999 52zM248.001 532c0 -77.333 16 -142.667 48 -196c136 81.333 204 169.333 204 264v24
c-8.66699 90.667 -50 136 -124 136h-20c-72 -72.667 -108 -148.667 -108 -228zM557.001 883.999l-179 319l-114 -104z" />
    <glyph glyph-name="eacute" unicode="&#xe9;" horiz-adv-x="805" 
d="M433 843l-55.999 -48h4l64 12h28c94 0 154 -32 180 -96c24 -49.333 36 -88 36 -116v-4c0 -80 -64 -150.667 -192 -212c-55.333 -23.333 -119.333 -43.333 -192 -60c70.667 -88 154.667 -132 252 -132h80l40 4v-4l-176 -180c-91.333 19.333 -164.666 47.333 -219.999 84
c-80.667 46.667 -139.334 116 -176.001 208c-5.33301 11.333 -8 32.666 -8 63.999v12c0 180.667 70.667 319.334 212 416.001c59.333 34 100.666 51.333 123.999 52zM241.001 539c0 -77.333 16 -142.667 48 -196c136 81.333 204 169.333 204 264v24
c-8.66699 90.667 -50 136 -124 136h-20c-72 -72.667 -108 -148.667 -108 -228zM363.001 931.999l217 199l-105 34z" />
    <glyph glyph-name="ecircumflex" unicode="&#xea;" horiz-adv-x="794" 
d="M437 843l-55.999 -48h4l64 12h28c94 0 154 -32 180 -96c24 -49.333 36 -88 36 -116v-4c0 -80 -64 -150.667 -192 -212c-55.333 -23.333 -119.333 -43.333 -192 -60c70.667 -88 154.667 -132 252 -132h80l40 4v-4l-176 -180c-91.333 19.333 -164.666 47.333 -219.999 84
c-80.667 46.667 -139.334 116 -176.001 208c-5.33301 11.333 -8 32.666 -8 63.999v12c0 180.667 70.667 319.334 212 416.001c59.333 34 100.666 51.333 123.999 52zM245.001 539c0 -77.333 16 -142.667 48 -196c136 81.333 204 169.333 204 264v24
c-8.66699 90.667 -50 136 -124 136h-20c-72 -72.667 -108 -148.667 -108 -228zM415.001 1100l183 -160h-39l-159 108l-142 -108h-40l185 160h12z" />
    <glyph glyph-name="edieresis" unicode="&#xeb;" horiz-adv-x="801" 
d="M436 844l-55.999 -48h4l64 12h28c94 0 154 -32 180 -96c24 -49.333 36 -88 36 -116v-4c0 -80 -64 -150.667 -192 -212c-55.333 -23.333 -119.333 -43.333 -192 -60c70.667 -88 154.667 -132 252 -132h80l40 4v-4l-176 -180c-91.333 19.333 -164.666 47.333 -219.999 84
c-80.667 46.667 -139.334 116 -176.001 208c-5.33301 11.333 -8 32.666 -8 63.999v12c0 180.667 70.667 319.334 212 416.001c59.333 34 100.666 51.333 123.999 52zM244.001 540c0 -77.333 16 -142.667 48 -196c136 81.333 204 169.333 204 264v24
c-8.66699 90.667 -50 136 -124 136h-20c-72 -72.667 -108 -148.667 -108 -228zM483.001 1030c9.33301 0 18.5 -1.83301 27.5 -5.5s16 -8.83398 21 -15.501s7.5 -13.667 7.5 -21s-2.5 -14.333 -7.5 -21s-11.833 -11.834 -20.5 -15.501s-18 -5.5 -28 -5.5
s-19.333 1.83301 -28 5.5s-15.5 8.83398 -20.5 15.501s-7.5 13.667 -7.5 21s2.5 14.333 7.5 21s12 11.834 21 15.501s18.167 5.5 27.5 5.5zM320.001 1029c9.33301 0 18.166 -1.83301 26.499 -5.5s14.833 -8.83398 19.5 -15.501s7 -13.667 7 -21s-2.33301 -14.333 -7 -21
s-11.167 -11.834 -19.5 -15.501s-17.166 -5.5 -26.499 -5.5c-8.66699 0 -17.167 1.83301 -25.5 5.5s-14.833 8.83398 -19.5 15.501s-7 13.667 -7 21s2.33301 14.333 7 21s11.167 11.834 19.5 15.501s16.833 5.5 25.5 5.5z" />
    <glyph glyph-name="igrave" unicode="&#xec;" horiz-adv-x="569" 
 />
    <glyph glyph-name="iacute" unicode="&#xed;" horiz-adv-x="569" 
 />
    <glyph glyph-name="icircumflex" unicode="&#xee;" horiz-adv-x="569" 
 />
    <glyph glyph-name="eth" unicode="&#xf0;" 
 />
    <glyph glyph-name="ntilde" unicode="&#xf1;" 
 />
    <glyph glyph-name="ograve" unicode="&#xf2;" 
 />
    <glyph glyph-name="oacute" unicode="&#xf3;" 
 />
    <glyph glyph-name="ocircumflex" unicode="&#xf4;" horiz-adv-x="757" 
d="M391 799c130.667 -64.667 214.667 -148.668 252 -252.001c16 -38 24 -72.667 24 -104v-24c0 -158 -74.667 -286 -224 -384l-48 -24v4c96 124.667 144 227.334 144 308.001v32c0 71.333 -44 142 -132 212c-65.333 29.333 -113.333 44 -144 44l-4 4v4
c82.667 120 126.667 180 132 180zM339 790.999v-4c-104 -116 -156 -218.667 -156 -308v-52c0 -62 41.333 -124.667 124 -188c58.667 -29.333 112 -44 160 -44h12v-8l-128 -180c-54 0 -116.667 33.333 -188 100c-61.333 85.333 -92 165.333 -92 240v40
c0 165.333 86.667 300 260 404h8zM377 1079l169 -149l-51 -8l-131 123l-132 -137l-37 22l171 149h11z" />
    <glyph glyph-name="otilde" unicode="&#xf5;" horiz-adv-x="756" 
d="M406 792c130.667 -64.667 214.667 -148.668 252 -252.001c16 -38 24 -72.667 24 -104v-24c0 -158 -74.667 -286 -224 -384l-48 -24v4c96 124.667 144 227.334 144 308.001v32c0 71.333 -44 142 -132 212c-65.333 29.333 -113.333 44 -144 44l-4 4v4
c82.667 120 126.667 180 132 180zM354 783.999v-4c-104 -116 -156 -218.667 -156 -308v-52c0 -62 41.333 -124.667 124 -188c58.667 -29.333 112 -44 160 -44h12v-8l-128 -180c-54 0 -116.667 33.333 -188 100c-61.333 85.333 -92 165.333 -92 240v40
c0 165.333 86.667 300 260 404h8zM503 1044l12.998 0.00195312c-0.666992 -44.667 -7.83398 -79.334 -21.501 -104.001s-29.834 -37 -48.501 -37c-8.66699 0 -18.167 2.66699 -28.5 8s-36.5 23.333 -78.5 54c-30 21.333 -51 32 -63 32
c-13.333 0 -24.666 -7.33301 -33.999 -22s-15.666 -38.334 -18.999 -71.001h-13c0.666992 46 7.5 81.167 20.5 105.5s28.5 36.5 46.5 36.5c8 0 16.667 -2.66699 26 -8c19.333 -10 45.333 -27.333 78 -52s55.334 -37 68.001 -37c14.667 0 26.834 8.16699 36.501 24.5
s15.5 39.833 17.5 70.5z" />
    <glyph glyph-name="odieresis" unicode="&#xf6;" horiz-adv-x="775" 
d="M395 792c130.667 -64.667 214.667 -148.668 252 -252.001c16 -38 24 -72.667 24 -104v-24c0 -158 -74.667 -286 -224 -384l-48 -24v4c96 124.667 144 227.334 144 308.001v32c0 71.333 -44 142 -132 212c-65.333 29.333 -113.333 44 -144 44l-4 4v4
c82.667 120 126.667 180 132 180zM343 783.999v-4c-104 -116 -156 -218.667 -156 -308v-52c0 -62 41.333 -124.667 124 -188c58.667 -29.333 112 -44 160 -44h12v-8l-128 -180c-54 0 -116.667 33.333 -188 100c-61.333 85.333 -92 165.333 -92 240v40
c0 165.333 86.667 300 260 404h8zM446 1018c10 0 19.8311 -2.33301 29.498 -7s17.167 -11.334 22.5 -20.001s8 -17.667 8 -27c0 -8.66699 -2.66699 -17.334 -8 -26.001s-12.666 -15.334 -21.999 -20.001s-19.333 -7 -30 -7s-20.667 2.33301 -30 7
s-16.666 11.334 -21.999 20.001s-8 17.334 -8 26.001c0 9.33301 2.66699 18.333 8 27s12.833 15.334 22.5 20.001s19.5 7 29.5 7zM276.998 1017c9.33301 0 18.5 -2.5 27.5 -7.5s16 -12 21 -21s7.5 -18.5 7.5 -28.5s-2.5 -19.5 -7.5 -28.5s-11.833 -16 -20.5 -21
s-18 -7.5 -28 -7.5s-19.333 2.5 -28 7.5s-15.5 12 -20.5 21s-7.5 18.5 -7.5 28.5s2.5 19.5 7.5 28.5s12 16 21 21s18.167 7.5 27.5 7.5z" />
    <glyph glyph-name="divide" unicode="&#xf7;" horiz-adv-x="1124" 
 />
    <glyph glyph-name="oslash" unicode="&#xf8;" horiz-adv-x="1251" 
 />
    <glyph glyph-name="ugrave" unicode="&#xf9;" horiz-adv-x="768" 
d="M134 742l180.003 -64.001v-4c-32 -66 -48 -147.333 -48 -244v-24c0 -170 32 -275.333 96 -316l28 -8c26 0 68.667 14.667 128 44c-34.667 94 -52 179.333 -52 256v52c13.333 205.333 34.666 308 63.999 308c105.333 -36 160 -58.667 164 -68
c-48 -131.333 -72 -256.666 -72 -375.999v-96c0 -46 9.33301 -119.333 28 -220l-4 -4h-4c-38.667 27.333 -76 67.333 -112 120c-92 -58.667 -146.667 -88 -164 -88c-52.667 6.66699 -107.334 34.667 -164.001 84c-80 97.333 -120 204 -120 320v76
c13.333 168 30.666 252 51.999 252zM197.003 1052l159 24l142 -251z" />
    <glyph glyph-name="uacute" unicode="&#xfa;" horiz-adv-x="771" 
d="M145 742l180.003 -64.001v-4c-32 -66 -48 -147.333 -48 -244v-24c0 -170 32 -275.333 96 -316l28 -8c26 0 68.667 14.667 128 44c-34.667 94 -52 179.333 -52 256v52c13.333 205.333 34.666 308 63.999 308c105.333 -36 160 -58.667 164 -68
c-48 -131.333 -72 -256.666 -72 -375.999v-96c0 -46 9.33301 -119.333 28 -220l-4 -4h-4c-38.667 27.333 -76 67.333 -112 120c-92 -58.667 -146.667 -88 -164 -88c-52.667 6.66699 -107.334 34.667 -164.001 84c-80 97.333 -120 204 -120 320v76
c13.333 168 30.666 252 51.999 252zM572.003 1095l-139 -32l-105 -234z" />
    <glyph glyph-name="ucircumflex" unicode="&#xfb;" 
 />
    <glyph glyph-name="udieresis" unicode="&#xfc;" 
 />
    <glyph glyph-name="yacute" unicode="&#xfd;" horiz-adv-x="1024" 
 />
    <glyph glyph-name="thorn" unicode="&#xfe;" 
 />
    <glyph glyph-name="ydieresis" unicode="&#xff;" horiz-adv-x="1024" 
 />
    <glyph glyph-name="Amacron" unicode="&#x100;" horiz-adv-x="1366" 
 />
    <glyph glyph-name="amacron" unicode="&#x101;" 
 />
    <glyph glyph-name="Abreve" unicode="&#x102;" horiz-adv-x="1366" 
 />
    <glyph glyph-name="abreve" unicode="&#x103;" 
 />
    <glyph glyph-name="Aogonek" unicode="&#x104;" horiz-adv-x="1366" 
 />
    <glyph glyph-name="aogonek" unicode="&#x105;" 
 />
    <glyph glyph-name="Cacute" unicode="&#x106;" horiz-adv-x="1479" 
 />
    <glyph glyph-name="cacute" unicode="&#x107;" horiz-adv-x="1024" 
 />
    <glyph glyph-name="Ccircumflex" unicode="&#x108;" horiz-adv-x="1479" 
 />
    <glyph glyph-name="ccircumflex" unicode="&#x109;" horiz-adv-x="1024" 
 />
    <glyph glyph-name="Cdotaccent" unicode="&#x10a;" horiz-adv-x="1479" 
 />
    <glyph glyph-name="cdotaccent" unicode="&#x10b;" horiz-adv-x="1024" 
 />
    <glyph glyph-name="Ccaron" unicode="&#x10c;" horiz-adv-x="1479" 
 />
    <glyph glyph-name="ccaron" unicode="&#x10d;" horiz-adv-x="1024" 
 />
    <glyph glyph-name="Dcaron" unicode="&#x10e;" horiz-adv-x="1479" 
 />
    <glyph glyph-name="dcaron" unicode="&#x10f;" horiz-adv-x="1259" 
 />
    <glyph glyph-name="Dcroat" unicode="&#x110;" horiz-adv-x="1479" 
 />
    <glyph glyph-name="dcroat" unicode="&#x111;" 
 />
    <glyph glyph-name="Emacron" unicode="&#x112;" horiz-adv-x="1366" 
 />
    <glyph glyph-name="emacron" unicode="&#x113;" 
 />
    <glyph glyph-name="Ebreve" unicode="&#x114;" horiz-adv-x="1366" 
 />
    <glyph glyph-name="ebreve" unicode="&#x115;" 
 />
    <glyph glyph-name="Edotaccent" unicode="&#x116;" horiz-adv-x="1366" 
 />
    <glyph glyph-name="edotaccent" unicode="&#x117;" 
 />
    <glyph glyph-name="Eogonek" unicode="&#x118;" horiz-adv-x="1366" 
 />
    <glyph glyph-name="eogonek" unicode="&#x119;" 
 />
    <glyph glyph-name="Ecaron" unicode="&#x11a;" horiz-adv-x="1366" 
 />
    <glyph glyph-name="ecaron" unicode="&#x11b;" 
 />
    <glyph glyph-name="Gcircumflex" unicode="&#x11c;" horiz-adv-x="1593" 
 />
    <glyph glyph-name="gcircumflex" unicode="&#x11d;" 
 />
    <glyph glyph-name="Gbreve" unicode="&#x11e;" horiz-adv-x="1593" 
 />
    <glyph glyph-name="gbreve" unicode="&#x11f;" 
 />
    <glyph glyph-name="Gdotaccent" unicode="&#x120;" horiz-adv-x="1593" 
 />
    <glyph glyph-name="gdotaccent" unicode="&#x121;" 
 />
    <glyph glyph-name="Gcommaaccent" unicode="&#x122;" horiz-adv-x="1593" 
 />
    <glyph glyph-name="gcommaaccent" unicode="&#x123;" 
 />
    <glyph glyph-name="Hcircumflex" unicode="&#x124;" horiz-adv-x="1479" 
 />
    <glyph glyph-name="hcircumflex" unicode="&#x125;" 
 />
    <glyph glyph-name="Hbar" unicode="&#x126;" horiz-adv-x="1479" 
 />
    <glyph glyph-name="hbar" unicode="&#x127;" 
 />
    <glyph glyph-name="Itilde" unicode="&#x128;" horiz-adv-x="569" 
 />
    <glyph glyph-name="itilde" unicode="&#x129;" horiz-adv-x="569" 
 />
    <glyph glyph-name="Imacron" unicode="&#x12a;" horiz-adv-x="569" 
 />
    <glyph glyph-name="imacron" unicode="&#x12b;" horiz-adv-x="569" 
 />
    <glyph glyph-name="Ibreve" unicode="&#x12c;" horiz-adv-x="569" 
 />
    <glyph glyph-name="ibreve" unicode="&#x12d;" horiz-adv-x="569" 
 />
    <glyph glyph-name="Iogonek" unicode="&#x12e;" horiz-adv-x="569" 
 />
    <glyph glyph-name="iogonek" unicode="&#x12f;" horiz-adv-x="455" 
 />
    <glyph glyph-name="Idotaccent" unicode="&#x130;" horiz-adv-x="569" 
 />
    <glyph glyph-name="dotlessi" unicode="&#x131;" horiz-adv-x="569" 
 />
    <glyph glyph-name="IJ" unicode="&#x132;" horiz-adv-x="1505" 
 />
    <glyph glyph-name="ij" unicode="&#x133;" horiz-adv-x="909" 
 />
    <glyph glyph-name="Jcircumflex" unicode="&#x134;" horiz-adv-x="1024" 
 />
    <glyph glyph-name="jcircumflex" unicode="&#x135;" horiz-adv-x="455" 
 />
    <glyph glyph-name="Kcommaaccent" unicode="&#x136;" horiz-adv-x="1366" 
 />
    <glyph glyph-name="kcommaaccent" unicode="&#x137;" horiz-adv-x="1024" 
 />
    <glyph glyph-name="kgreenlandic" unicode="&#x138;" horiz-adv-x="1024" 
 />
    <glyph glyph-name="Lacute" unicode="&#x139;" 
 />
    <glyph glyph-name="lacute" unicode="&#x13a;" horiz-adv-x="455" 
 />
    <glyph glyph-name="Lcommaaccent" unicode="&#x13b;" 
 />
    <glyph glyph-name="lcommaaccent" unicode="&#x13c;" horiz-adv-x="455" 
 />
    <glyph glyph-name="Lcaron" unicode="&#x13d;" 
 />
    <glyph glyph-name="lcaron" unicode="&#x13e;" horiz-adv-x="597" 
 />
    <glyph glyph-name="Ldot" unicode="&#x13f;" 
 />
    <glyph glyph-name="ldot" unicode="&#x140;" horiz-adv-x="684" 
 />
    <glyph glyph-name="Lslash" unicode="&#x141;" 
 />
    <glyph glyph-name="lslash" unicode="&#x142;" horiz-adv-x="455" 
 />
    <glyph glyph-name="Nacute" unicode="&#x143;" horiz-adv-x="1479" 
 />
    <glyph glyph-name="nacute" unicode="&#x144;" 
 />
    <glyph glyph-name="Ncommaaccent" unicode="&#x145;" horiz-adv-x="1479" 
 />
    <glyph glyph-name="ncommaaccent" unicode="&#x146;" 
 />
    <glyph glyph-name="Ncaron" unicode="&#x147;" horiz-adv-x="1479" 
 />
    <glyph glyph-name="ncaron" unicode="&#x148;" 
 />
    <glyph glyph-name="napostrophe" unicode="&#x149;" horiz-adv-x="1237" 
 />
    <glyph glyph-name="Eng" unicode="&#x14a;" horiz-adv-x="1481" 
 />
    <glyph glyph-name="eng" unicode="&#x14b;" 
 />
    <glyph glyph-name="Omacron" unicode="&#x14c;" horiz-adv-x="1593" 
 />
    <glyph glyph-name="omacron" unicode="&#x14d;" 
 />
    <glyph glyph-name="Obreve" unicode="&#x14e;" horiz-adv-x="1593" 
 />
    <glyph glyph-name="obreve" unicode="&#x14f;" 
 />
    <glyph glyph-name="Ohungarumlaut" unicode="&#x150;" horiz-adv-x="1593" 
 />
    <glyph glyph-name="ohungarumlaut" unicode="&#x151;" 
 />
    <glyph glyph-name="OE" unicode="&#x152;" horiz-adv-x="2048" 
 />
    <glyph glyph-name="oe" unicode="&#x153;" horiz-adv-x="1206" 
d="M376 785c130.667 -64.667 214.667 -148.668 252 -252.001c16 -38 24 -72.667 24 -104v-24c0 -158 -74.667 -286 -224 -384l-48 -24v4c96 124.667 144 227.334 144 308.001v32c0 71.333 -44 142 -132 212c-65.333 29.333 -113.333 44 -144 44l-4 4v4
c82.667 120 126.667 180 132 180zM331 791.999v-4c-104 -116 -156 -218.667 -156 -308v-52c0 -62 41.333 -124.667 124 -188c58.667 -29.333 112 -44 160 -44h12v-8l-128 -180c-54 0 -116.667 33.333 -188 100c-61.333 85.333 -92 165.333 -92 240v40
c0 165.333 86.667 300 260 404h8zM865 827.999l-55.999 -48h4l64 12h28c94 0 154 -32 180 -96c24 -49.333 36 -88 36 -116v-4c0 -80 -64 -150.667 -192 -212c-55.333 -23.333 -119.333 -43.333 -192 -60c70.667 -88 154.667 -132 252 -132h80l40 4v-4l-176 -180
c-91.333 19.333 -164.666 47.333 -219.999 84c-80.667 46.667 -139.334 116 -176.001 208c-5.33301 11.333 -8 32.666 -8 63.999v12c0 180.667 70.667 319.334 212 416.001c59.333 34 100.666 51.333 123.999 52zM680.001 523.999c0 -77.333 16 -142.667 48 -196
c136 81.333 204 169.333 204 264v24c-8.66699 90.667 -50 136 -124 136h-20c-72 -72.667 -108 -148.667 -108 -228z" />
    <glyph glyph-name="Racute" unicode="&#x154;" horiz-adv-x="1479" 
 />
    <glyph glyph-name="racute" unicode="&#x155;" horiz-adv-x="682" 
 />
    <glyph glyph-name="Rcommaaccent" unicode="&#x156;" horiz-adv-x="1479" 
 />
    <glyph glyph-name="rcommaaccent" unicode="&#x157;" horiz-adv-x="682" 
 />
    <glyph glyph-name="Rcaron" unicode="&#x158;" horiz-adv-x="1479" 
 />
    <glyph glyph-name="rcaron" unicode="&#x159;" horiz-adv-x="682" 
 />
    <glyph glyph-name="Sacute" unicode="&#x15a;" horiz-adv-x="1366" 
 />
    <glyph glyph-name="sacute" unicode="&#x15b;" horiz-adv-x="1024" 
 />
    <glyph glyph-name="Scircumflex" unicode="&#x15c;" horiz-adv-x="1366" 
 />
    <glyph glyph-name="scircumflex" unicode="&#x15d;" horiz-adv-x="1024" 
 />
    <glyph glyph-name="Scedilla" unicode="&#x15e;" horiz-adv-x="1366" 
 />
    <glyph glyph-name="scedilla" unicode="&#x15f;" horiz-adv-x="1024" 
 />
    <glyph glyph-name="Scaron" unicode="&#x160;" horiz-adv-x="1366" 
 />
    <glyph glyph-name="scaron" unicode="&#x161;" horiz-adv-x="1024" 
 />
    <glyph glyph-name="Tcommaaccent" unicode="&#x162;" horiz-adv-x="1251" 
 />
    <glyph glyph-name="tcommaaccent" unicode="&#x163;" horiz-adv-x="569" 
 />
    <glyph glyph-name="Tcaron" unicode="&#x164;" horiz-adv-x="1251" 
 />
    <glyph glyph-name="tcaron" unicode="&#x165;" horiz-adv-x="768" 
 />
    <glyph glyph-name="Tbar" unicode="&#x166;" horiz-adv-x="1251" 
 />
    <glyph glyph-name="tbar" unicode="&#x167;" horiz-adv-x="569" 
 />
    <glyph glyph-name="Utilde" unicode="&#x168;" horiz-adv-x="1479" 
 />
    <glyph glyph-name="utilde" unicode="&#x169;" 
 />
    <glyph glyph-name="Umacron" unicode="&#x16a;" horiz-adv-x="1479" 
 />
    <glyph glyph-name="umacron" unicode="&#x16b;" 
 />
    <glyph glyph-name="Ubreve" unicode="&#x16c;" horiz-adv-x="1479" 
 />
    <glyph glyph-name="ubreve" unicode="&#x16d;" 
 />
    <glyph glyph-name="Uring" unicode="&#x16e;" horiz-adv-x="1479" 
 />
    <glyph glyph-name="uring" unicode="&#x16f;" 
 />
    <glyph glyph-name="Uhungarumlaut" unicode="&#x170;" horiz-adv-x="1479" 
 />
    <glyph glyph-name="uhungarumlaut" unicode="&#x171;" 
 />
    <glyph glyph-name="Uogonek" unicode="&#x172;" horiz-adv-x="1479" 
 />
    <glyph glyph-name="uogonek" unicode="&#x173;" 
 />
    <glyph glyph-name="Wcircumflex" unicode="&#x174;" horiz-adv-x="1933" 
 />
    <glyph glyph-name="wcircumflex" unicode="&#x175;" horiz-adv-x="1479" 
 />
    <glyph glyph-name="Ycircumflex" unicode="&#x176;" horiz-adv-x="1366" 
 />
    <glyph glyph-name="ycircumflex" unicode="&#x177;" horiz-adv-x="1024" 
 />
    <glyph glyph-name="Ydieresis" unicode="&#x178;" horiz-adv-x="1366" 
 />
    <glyph glyph-name="Zacute" unicode="&#x179;" horiz-adv-x="1251" 
 />
    <glyph glyph-name="zacute" unicode="&#x17a;" horiz-adv-x="1024" 
 />
    <glyph glyph-name="Zdotaccent" unicode="&#x17b;" horiz-adv-x="1251" 
 />
    <glyph glyph-name="zdotaccent" unicode="&#x17c;" horiz-adv-x="1024" 
 />
    <glyph glyph-name="Zcaron" unicode="&#x17d;" horiz-adv-x="1251" 
 />
    <glyph glyph-name="zcaron" unicode="&#x17e;" horiz-adv-x="1024" 
 />
    <glyph glyph-name="longs" unicode="&#x17f;" horiz-adv-x="455" 
 />
    <glyph glyph-name="florin" unicode="&#x192;" 
 />
    <glyph glyph-name="Aringacute" unicode="&#x1fa;" horiz-adv-x="1366" 
 />
    <glyph glyph-name="aringacute" unicode="&#x1fb;" 
 />
    <glyph glyph-name="AEacute" unicode="&#x1fc;" horiz-adv-x="2048" 
 />
    <glyph glyph-name="aeacute" unicode="&#x1fd;" horiz-adv-x="1821" 
 />
    <glyph glyph-name="Oslashacute" unicode="&#x1fe;" horiz-adv-x="1593" 
 />
    <glyph glyph-name="oslashacute" unicode="&#x1ff;" horiz-adv-x="1251" 
 />
    <glyph glyph-name="circumflex" unicode="&#x2c6;" horiz-adv-x="682" 
 />
    <glyph glyph-name="caron" unicode="&#x2c7;" horiz-adv-x="682" 
 />
    <glyph glyph-name="uni02C9" unicode="&#x2c9;" horiz-adv-x="682" 
 />
    <glyph glyph-name="breve" unicode="&#x2d8;" horiz-adv-x="682" 
 />
    <glyph glyph-name="dotaccent" unicode="&#x2d9;" horiz-adv-x="682" 
 />
    <glyph glyph-name="ring" unicode="&#x2da;" horiz-adv-x="682" 
 />
    <glyph glyph-name="ogonek" unicode="&#x2db;" horiz-adv-x="682" 
 />
    <glyph glyph-name="tilde" unicode="&#x2dc;" horiz-adv-x="682" 
 />
    <glyph glyph-name="hungarumlaut" unicode="&#x2dd;" horiz-adv-x="682" 
 />
    <glyph glyph-name="tonos" unicode="&#x384;" horiz-adv-x="682" 
 />
    <glyph glyph-name="dieresistonos" unicode="&#x385;" horiz-adv-x="682" 
 />
    <glyph glyph-name="Alphatonos" unicode="&#x386;" horiz-adv-x="1367" 
 />
    <glyph glyph-name="anoteleia" unicode="&#x387;" horiz-adv-x="569" 
 />
    <glyph glyph-name="Epsilontonos" unicode="&#x388;" horiz-adv-x="1606" 
 />
    <glyph glyph-name="Etatonos" unicode="&#x389;" horiz-adv-x="1716" 
 />
    <glyph glyph-name="Iotatonos" unicode="&#x38a;" horiz-adv-x="786" 
 />
    <glyph glyph-name="Omicrontonos" unicode="&#x38c;" horiz-adv-x="1586" 
 />
    <glyph glyph-name="Upsilontonos" unicode="&#x38e;" horiz-adv-x="1752" 
 />
    <glyph glyph-name="Omegatonos" unicode="&#x38f;" horiz-adv-x="1541" 
 />
    <glyph glyph-name="iotadieresistonos" unicode="&#x390;" horiz-adv-x="455" 
 />
    <glyph glyph-name="Alpha" unicode="&#x391;" horiz-adv-x="1366" 
 />
    <glyph glyph-name="Beta" unicode="&#x392;" horiz-adv-x="1366" 
 />
    <glyph glyph-name="Gamma" unicode="&#x393;" horiz-adv-x="1128" 
 />
    <glyph glyph-name="uni0394" unicode="&#x394;" horiz-adv-x="1368" 
 />
    <glyph glyph-name="Epsilon" unicode="&#x395;" horiz-adv-x="1366" 
 />
    <glyph glyph-name="Zeta" unicode="&#x396;" horiz-adv-x="1251" 
 />
    <glyph glyph-name="Eta" unicode="&#x397;" horiz-adv-x="1479" 
 />
    <glyph glyph-name="Theta" unicode="&#x398;" horiz-adv-x="1593" 
 />
    <glyph glyph-name="Iota" unicode="&#x399;" horiz-adv-x="569" 
 />
    <glyph glyph-name="Kappa" unicode="&#x39a;" horiz-adv-x="1366" 
 />
    <glyph glyph-name="Lambda" unicode="&#x39b;" horiz-adv-x="1368" 
 />
    <glyph glyph-name="Mu" unicode="&#x39c;" horiz-adv-x="1706" 
 />
    <glyph glyph-name="Nu" unicode="&#x39d;" horiz-adv-x="1479" 
 />
    <glyph glyph-name="Xi" unicode="&#x39e;" horiz-adv-x="1331" 
 />
    <glyph glyph-name="Omicron" unicode="&#x39f;" horiz-adv-x="1593" 
 />
    <glyph glyph-name="Pi" unicode="&#x3a0;" horiz-adv-x="1479" 
 />
    <glyph glyph-name="Rho" unicode="&#x3a1;" horiz-adv-x="1366" 
 />
    <glyph glyph-name="Sigma" unicode="&#x3a3;" horiz-adv-x="1266" 
 />
    <glyph glyph-name="Tau" unicode="&#x3a4;" horiz-adv-x="1251" 
 />
    <glyph glyph-name="Upsilon" unicode="&#x3a5;" horiz-adv-x="1366" 
 />
    <glyph glyph-name="Phi" unicode="&#x3a6;" horiz-adv-x="1634" 
 />
    <glyph glyph-name="Chi" unicode="&#x3a7;" horiz-adv-x="1366" 
 />
    <glyph glyph-name="Psi" unicode="&#x3a8;" horiz-adv-x="1711" 
 />
    <glyph glyph-name="uni03A9" unicode="&#x3a9;" horiz-adv-x="1531" 
 />
    <glyph glyph-name="Iotadieresis" unicode="&#x3aa;" horiz-adv-x="569" 
 />
    <glyph glyph-name="Upsilondieresis" unicode="&#x3ab;" horiz-adv-x="1366" 
 />
    <glyph glyph-name="alphatonos" unicode="&#x3ac;" horiz-adv-x="1184" 
 />
    <glyph glyph-name="epsilontonos" unicode="&#x3ad;" horiz-adv-x="913" 
 />
    <glyph glyph-name="etatonos" unicode="&#x3ae;" 
 />
    <glyph glyph-name="iotatonos" unicode="&#x3af;" horiz-adv-x="455" 
 />
    <glyph glyph-name="upsilondieresistonos" unicode="&#x3b0;" horiz-adv-x="1120" 
 />
    <glyph glyph-name="alpha" unicode="&#x3b1;" horiz-adv-x="1184" 
 />
    <glyph glyph-name="beta" unicode="&#x3b2;" horiz-adv-x="1178" 
 />
    <glyph glyph-name="gamma" unicode="&#x3b3;" horiz-adv-x="1024" 
 />
    <glyph glyph-name="delta" unicode="&#x3b4;" horiz-adv-x="1140" 
 />
    <glyph glyph-name="epsilon" unicode="&#x3b5;" horiz-adv-x="913" 
 />
    <glyph glyph-name="zeta" unicode="&#x3b6;" horiz-adv-x="903" 
 />
    <glyph glyph-name="eta" unicode="&#x3b7;" 
 />
    <glyph glyph-name="theta" unicode="&#x3b8;" 
 />
    <glyph glyph-name="iota" unicode="&#x3b9;" horiz-adv-x="455" 
 />
    <glyph glyph-name="kappa" unicode="&#x3ba;" horiz-adv-x="1024" 
 />
    <glyph glyph-name="lambda" unicode="&#x3bb;" horiz-adv-x="1024" 
 />
    <glyph glyph-name="uni03BC" unicode="&#x3bc;" horiz-adv-x="1180" 
 />
    <glyph glyph-name="nu" unicode="&#x3bd;" horiz-adv-x="1024" 
 />
    <glyph glyph-name="xi" unicode="&#x3be;" horiz-adv-x="917" 
 />
    <glyph glyph-name="omicron" unicode="&#x3bf;" 
 />
    <glyph glyph-name="pi" unicode="&#x3c0;" horiz-adv-x="1413" 
 />
    <glyph glyph-name="rho" unicode="&#x3c1;" horiz-adv-x="1165" 
 />
    <glyph glyph-name="sigma1" unicode="&#x3c2;" horiz-adv-x="987" 
 />
    <glyph glyph-name="sigma" unicode="&#x3c3;" horiz-adv-x="1264" 
 />
    <glyph glyph-name="tau" unicode="&#x3c4;" horiz-adv-x="809" 
 />
    <glyph glyph-name="upsilon" unicode="&#x3c5;" horiz-adv-x="1120" 
 />
    <glyph glyph-name="phi" unicode="&#x3c6;" horiz-adv-x="1328" 
 />
    <glyph glyph-name="chi" unicode="&#x3c7;" horiz-adv-x="1075" 
 />
    <glyph glyph-name="psi" unicode="&#x3c8;" horiz-adv-x="1460" 
 />
    <glyph glyph-name="omega" unicode="&#x3c9;" horiz-adv-x="1599" 
 />
    <glyph glyph-name="iotadieresis" unicode="&#x3ca;" horiz-adv-x="455" 
 />
    <glyph glyph-name="upsilondieresis" unicode="&#x3cb;" horiz-adv-x="1120" 
 />
    <glyph glyph-name="omicrontonos" unicode="&#x3cc;" 
 />
    <glyph glyph-name="upsilontonos" unicode="&#x3cd;" horiz-adv-x="1120" 
 />
    <glyph glyph-name="omegatonos" unicode="&#x3ce;" horiz-adv-x="1599" 
 />
    <glyph glyph-name="afii10023" unicode="&#x401;" horiz-adv-x="1367" 
 />
    <glyph glyph-name="afii10051" unicode="&#x402;" horiz-adv-x="1771" 
 />
    <glyph glyph-name="afii10052" unicode="&#x403;" horiz-adv-x="1109" 
 />
    <glyph glyph-name="afii10053" unicode="&#x404;" horiz-adv-x="1472" 
 />
    <glyph glyph-name="afii10054" unicode="&#x405;" horiz-adv-x="1366" 
 />
    <glyph glyph-name="afii10055" unicode="&#x406;" horiz-adv-x="569" 
 />
    <glyph glyph-name="afii10056" unicode="&#x407;" horiz-adv-x="569" 
 />
    <glyph glyph-name="afii10057" unicode="&#x408;" horiz-adv-x="1024" 
 />
    <glyph glyph-name="afii10058" unicode="&#x409;" horiz-adv-x="2165" 
 />
    <glyph glyph-name="afii10059" unicode="&#x40a;" horiz-adv-x="2069" 
 />
    <glyph glyph-name="afii10060" unicode="&#x40b;" horiz-adv-x="1749" 
 />
    <glyph glyph-name="afii10061" unicode="&#x40c;" horiz-adv-x="1193" 
 />
    <glyph glyph-name="afii10062" unicode="&#x40e;" horiz-adv-x="1301" 
 />
    <glyph glyph-name="afii10145" unicode="&#x40f;" horiz-adv-x="1472" 
 />
    <glyph glyph-name="afii10017" unicode="&#x410;" horiz-adv-x="1366" 
 />
    <glyph glyph-name="afii10018" unicode="&#x411;" horiz-adv-x="1344" 
 />
    <glyph glyph-name="afii10019" unicode="&#x412;" horiz-adv-x="1366" 
 />
    <glyph glyph-name="afii10020" unicode="&#x413;" horiz-adv-x="1109" 
 />
    <glyph glyph-name="afii10021" unicode="&#x414;" horiz-adv-x="1387" 
 />
    <glyph glyph-name="afii10022" unicode="&#x415;" horiz-adv-x="1366" 
 />
    <glyph glyph-name="afii10024" unicode="&#x416;" horiz-adv-x="1891" 
 />
    <glyph glyph-name="afii10025" unicode="&#x417;" horiz-adv-x="1237" 
 />
    <glyph glyph-name="afii10026" unicode="&#x418;" horiz-adv-x="1472" 
 />
    <glyph glyph-name="afii10027" unicode="&#x419;" horiz-adv-x="1472" 
 />
    <glyph glyph-name="afii10028" unicode="&#x41a;" horiz-adv-x="1193" 
 />
    <glyph glyph-name="afii10029" unicode="&#x41b;" horiz-adv-x="1344" 
 />
    <glyph glyph-name="afii10030" unicode="&#x41c;" horiz-adv-x="1706" 
 />
    <glyph glyph-name="afii10031" unicode="&#x41d;" horiz-adv-x="1479" 
 />
    <glyph glyph-name="afii10032" unicode="&#x41e;" horiz-adv-x="1593" 
 />
    <glyph glyph-name="afii10033" unicode="&#x41f;" horiz-adv-x="1472" 
 />
    <glyph glyph-name="afii10034" unicode="&#x420;" horiz-adv-x="1366" 
 />
    <glyph glyph-name="afii10035" unicode="&#x421;" horiz-adv-x="1479" 
 />
    <glyph glyph-name="afii10036" unicode="&#x422;" horiz-adv-x="1251" 
 />
    <glyph glyph-name="afii10037" unicode="&#x423;" horiz-adv-x="1301" 
 />
    <glyph glyph-name="afii10038" unicode="&#x424;" horiz-adv-x="1557" 
 />
    <glyph glyph-name="afii10039" unicode="&#x425;" horiz-adv-x="1366" 
 />
    <glyph glyph-name="afii10040" unicode="&#x426;" horiz-adv-x="1515" 
 />
    <glyph glyph-name="afii10041" unicode="&#x427;" horiz-adv-x="1365" 
 />
    <glyph glyph-name="afii10042" unicode="&#x428;" horiz-adv-x="1877" 
 />
    <glyph glyph-name="afii10043" unicode="&#x429;" horiz-adv-x="1920" 
 />
    <glyph glyph-name="afii10044" unicode="&#x42a;" horiz-adv-x="1621" 
 />
    <glyph glyph-name="afii10045" unicode="&#x42b;" horiz-adv-x="1813" 
 />
    <glyph glyph-name="afii10046" unicode="&#x42c;" horiz-adv-x="1344" 
 />
    <glyph glyph-name="afii10047" unicode="&#x42d;" horiz-adv-x="1472" 
 />
    <glyph glyph-name="afii10048" unicode="&#x42e;" horiz-adv-x="2069" 
 />
    <glyph glyph-name="afii10049" unicode="&#x42f;" horiz-adv-x="1479" 
 />
    <glyph glyph-name="afii10065" unicode="&#x430;" 
 />
    <glyph glyph-name="afii10066" unicode="&#x431;" horiz-adv-x="1173" 
 />
    <glyph glyph-name="afii10067" unicode="&#x432;" horiz-adv-x="1088" 
 />
    <glyph glyph-name="afii10068" unicode="&#x433;" horiz-adv-x="747" 
 />
    <glyph glyph-name="afii10069" unicode="&#x434;" horiz-adv-x="1195" 
 />
    <glyph glyph-name="afii10070" unicode="&#x435;" 
 />
    <glyph glyph-name="afii10072" unicode="&#x436;" horiz-adv-x="1370" 
 />
    <glyph glyph-name="afii10073" unicode="&#x437;" horiz-adv-x="939" 
 />
    <glyph glyph-name="afii10074" unicode="&#x438;" horiz-adv-x="1144" 
 />
    <glyph glyph-name="afii10075" unicode="&#x439;" horiz-adv-x="1144" 
 />
    <glyph glyph-name="afii10076" unicode="&#x43a;" horiz-adv-x="896" 
 />
    <glyph glyph-name="afii10077" unicode="&#x43b;" horiz-adv-x="1195" 
 />
    <glyph glyph-name="afii10078" unicode="&#x43c;" horiz-adv-x="1408" 
 />
    <glyph glyph-name="afii10079" unicode="&#x43d;" horiz-adv-x="1131" 
 />
    <glyph glyph-name="afii10080" unicode="&#x43e;" 
 />
    <glyph glyph-name="afii10081" unicode="&#x43f;" horiz-adv-x="1109" 
 />
    <glyph glyph-name="afii10082" unicode="&#x440;" 
 />
    <glyph glyph-name="afii10083" unicode="&#x441;" horiz-adv-x="1024" 
 />
    <glyph glyph-name="afii10084" unicode="&#x442;" horiz-adv-x="938" 
 />
    <glyph glyph-name="afii10085" unicode="&#x443;" horiz-adv-x="1024" 
 />
    <glyph glyph-name="afii10086" unicode="&#x444;" horiz-adv-x="1685" 
 />
    <glyph glyph-name="afii10087" unicode="&#x445;" horiz-adv-x="1024" 
 />
    <glyph glyph-name="afii10088" unicode="&#x446;" horiz-adv-x="1173" 
 />
    <glyph glyph-name="afii10089" unicode="&#x447;" horiz-adv-x="1067" 
 />
    <glyph glyph-name="afii10090" unicode="&#x448;" horiz-adv-x="1643" 
 />
    <glyph glyph-name="afii10091" unicode="&#x449;" horiz-adv-x="1685" 
 />
    <glyph glyph-name="afii10092" unicode="&#x44a;" horiz-adv-x="1280" 
 />
    <glyph glyph-name="afii10093" unicode="&#x44b;" horiz-adv-x="1472" 
 />
    <glyph glyph-name="afii10094" unicode="&#x44c;" horiz-adv-x="1067" 
 />
    <glyph glyph-name="afii10095" unicode="&#x44d;" horiz-adv-x="1045" 
 />
    <glyph glyph-name="afii10096" unicode="&#x44e;" horiz-adv-x="1536" 
 />
    <glyph glyph-name="afii10097" unicode="&#x44f;" horiz-adv-x="1109" 
 />
    <glyph glyph-name="afii10071" unicode="&#x451;" 
 />
    <glyph glyph-name="afii10099" unicode="&#x452;" 
 />
    <glyph glyph-name="afii10100" unicode="&#x453;" horiz-adv-x="747" 
 />
    <glyph glyph-name="afii10101" unicode="&#x454;" horiz-adv-x="1045" 
 />
    <glyph glyph-name="afii10102" unicode="&#x455;" horiz-adv-x="1024" 
 />
    <glyph glyph-name="afii10103" unicode="&#x456;" horiz-adv-x="455" 
 />
    <glyph glyph-name="afii10104" unicode="&#x457;" horiz-adv-x="569" 
 />
    <glyph glyph-name="afii10105" unicode="&#x458;" horiz-adv-x="455" 
 />
    <glyph glyph-name="afii10106" unicode="&#x459;" horiz-adv-x="1856" 
 />
    <glyph glyph-name="afii10107" unicode="&#x45a;" horiz-adv-x="1664" 
 />
    <glyph glyph-name="afii10108" unicode="&#x45b;" 
 />
    <glyph glyph-name="afii10109" unicode="&#x45c;" horiz-adv-x="896" 
 />
    <glyph glyph-name="afii10110" unicode="&#x45e;" horiz-adv-x="1024" 
 />
    <glyph glyph-name="afii10193" unicode="&#x45f;" horiz-adv-x="1131" 
 />
    <glyph glyph-name="afii10050" unicode="&#x490;" horiz-adv-x="1001" 
 />
    <glyph glyph-name="afii10098" unicode="&#x491;" horiz-adv-x="842" 
 />
    <glyph glyph-name="Wgrave" unicode="&#x1e80;" horiz-adv-x="1933" 
 />
    <glyph glyph-name="wgrave" unicode="&#x1e81;" horiz-adv-x="1479" 
 />
    <glyph glyph-name="Wacute" unicode="&#x1e82;" horiz-adv-x="1933" 
 />
    <glyph glyph-name="wacute" unicode="&#x1e83;" horiz-adv-x="1479" 
 />
    <glyph glyph-name="Wdieresis" unicode="&#x1e84;" horiz-adv-x="1933" 
 />
    <glyph glyph-name="wdieresis" unicode="&#x1e85;" horiz-adv-x="1479" 
 />
    <glyph glyph-name="Ygrave" unicode="&#x1ef2;" horiz-adv-x="1366" 
 />
    <glyph glyph-name="ygrave" unicode="&#x1ef3;" horiz-adv-x="1024" 
 />
    <glyph glyph-name="endash" unicode="&#x2013;" 
 />
    <glyph glyph-name="emdash" unicode="&#x2014;" horiz-adv-x="2048" 
 />
    <glyph glyph-name="afii00208" unicode="&#x2015;" horiz-adv-x="2048" 
 />
    <glyph glyph-name="underscoredbl" unicode="&#x2017;" horiz-adv-x="1131" 
 />
    <glyph glyph-name="quoteleft" unicode="&#x2018;" horiz-adv-x="455" 
 />
    <glyph glyph-name="quoteright" unicode="&#x2019;" horiz-adv-x="455" 
 />
    <glyph glyph-name="quotesinglbase" unicode="&#x201a;" horiz-adv-x="455" 
 />
    <glyph glyph-name="quotereversed" unicode="&#x201b;" horiz-adv-x="455" 
 />
    <glyph glyph-name="quotedblleft" unicode="&#x201c;" horiz-adv-x="682" 
 />
    <glyph glyph-name="quotedblright" unicode="&#x201d;" horiz-adv-x="682" 
 />
    <glyph glyph-name="quotedblbase" unicode="&#x201e;" horiz-adv-x="682" 
 />
    <glyph glyph-name="dagger" unicode="&#x2020;" 
 />
    <glyph glyph-name="daggerdbl" unicode="&#x2021;" 
 />
    <glyph glyph-name="bullet" unicode="&#x2022;" horiz-adv-x="717" 
 />
    <glyph glyph-name="ellipsis" unicode="&#x2026;" horiz-adv-x="2048" 
 />
    <glyph glyph-name="perthousand" unicode="&#x2030;" horiz-adv-x="2048" 
 />
    <glyph glyph-name="minute" unicode="&#x2032;" horiz-adv-x="384" 
 />
    <glyph glyph-name="second" unicode="&#x2033;" horiz-adv-x="725" 
 />
    <glyph glyph-name="guilsinglleft" unicode="&#x2039;" horiz-adv-x="682" 
 />
    <glyph glyph-name="guilsinglright" unicode="&#x203a;" horiz-adv-x="1225" 
 />
    <glyph glyph-name="exclamdbl" unicode="&#x203c;" horiz-adv-x="1024" 
 />
    <glyph glyph-name="uni203E" unicode="&#x203e;" horiz-adv-x="682" 
 />
    <glyph glyph-name="fraction" unicode="&#x2044;" horiz-adv-x="342" 
 />
    <glyph glyph-name="fraction" unicode="&#x2215;" horiz-adv-x="342" 
 />
    <glyph glyph-name="uni207F" unicode="&#x207f;" horiz-adv-x="747" 
 />
    <glyph glyph-name="franc" unicode="&#x20a3;" 
 />
    <glyph glyph-name="lira" unicode="&#x20a4;" 
 />
    <glyph glyph-name="peseta" unicode="&#x20a7;" horiz-adv-x="2240" 
 />
    <glyph glyph-name="Euro" unicode="&#x20ac;" 
 />
    <glyph glyph-name="afii61248" unicode="&#x2105;" horiz-adv-x="1813" 
 />
    <glyph glyph-name="afii61289" unicode="&#x2113;" horiz-adv-x="662" 
 />
    <glyph glyph-name="afii61352" unicode="&#x2116;" horiz-adv-x="2197" 
 />
    <glyph glyph-name="trademark" unicode="&#x2122;" horiz-adv-x="2048" 
 />
    <glyph glyph-name="Omega" unicode="&#x2126;" horiz-adv-x="1573" 
 />
    <glyph glyph-name="estimated" unicode="&#x212e;" horiz-adv-x="1229" 
 />
    <glyph glyph-name="oneeighth" unicode="&#x215b;" horiz-adv-x="1708" 
 />
    <glyph glyph-name="threeeighths" unicode="&#x215c;" horiz-adv-x="1708" 
 />
    <glyph glyph-name="fiveeighths" unicode="&#x215d;" horiz-adv-x="1708" 
 />
    <glyph glyph-name="seveneighths" unicode="&#x215e;" horiz-adv-x="1708" 
 />
    <glyph glyph-name="arrowleft" unicode="&#x2190;" horiz-adv-x="2048" 
 />
    <glyph glyph-name="arrowup" unicode="&#x2191;" horiz-adv-x="1024" 
 />
    <glyph glyph-name="arrowright" unicode="&#x2192;" horiz-adv-x="2048" 
 />
    <glyph glyph-name="arrowdown" unicode="&#x2193;" horiz-adv-x="1024" 
 />
    <glyph glyph-name="arrowboth" unicode="&#x2194;" horiz-adv-x="2048" 
 />
    <glyph glyph-name="arrowupdn" unicode="&#x2195;" horiz-adv-x="1024" 
 />
    <glyph glyph-name="arrowupdnbse" unicode="&#x21a8;" horiz-adv-x="1024" 
 />
    <glyph glyph-name="partialdiff" unicode="&#x2202;" horiz-adv-x="1012" 
 />
    <glyph glyph-name="Delta" unicode="&#x2206;" horiz-adv-x="1253" 
 />
    <glyph glyph-name="product" unicode="&#x220f;" horiz-adv-x="1686" 
 />
    <glyph glyph-name="summation" unicode="&#x2211;" horiz-adv-x="1460" 
 />
    <glyph glyph-name="minus" unicode="&#x2212;" horiz-adv-x="1196" 
 />
    <glyph glyph-name="radical" unicode="&#x221a;" horiz-adv-x="1124" 
 />
    <glyph glyph-name="infinity" unicode="&#x221e;" horiz-adv-x="1460" 
 />
    <glyph glyph-name="orthogonal" unicode="&#x221f;" horiz-adv-x="2005" 
 />
    <glyph glyph-name="intersection" unicode="&#x2229;" horiz-adv-x="1472" 
 />
    <glyph glyph-name="integral" unicode="&#x222b;" horiz-adv-x="561" 
 />
    <glyph glyph-name="approxequal" unicode="&#x2248;" horiz-adv-x="1124" 
 />
    <glyph glyph-name="notequal" unicode="&#x2260;" horiz-adv-x="1124" 
 />
    <glyph glyph-name="equivalence" unicode="&#x2261;" horiz-adv-x="1195" 
 />
    <glyph glyph-name="lessequal" unicode="&#x2264;" horiz-adv-x="1124" 
 />
    <glyph glyph-name="greaterequal" unicode="&#x2265;" horiz-adv-x="1124" 
 />
    <glyph glyph-name="house" unicode="&#x2302;" horiz-adv-x="1237" 
 />
    <glyph glyph-name="revlogicalnot" unicode="&#x2310;" horiz-adv-x="1196" 
 />
    <glyph glyph-name="integraltp" unicode="&#x2320;" horiz-adv-x="1237" 
 />
    <glyph glyph-name="integralbt" unicode="&#x2321;" horiz-adv-x="1237" 
 />
    <glyph glyph-name="SF100000" unicode="&#x2500;" horiz-adv-x="1451" 
 />
    <glyph glyph-name="SF110000" unicode="&#x2502;" horiz-adv-x="1280" 
 />
    <glyph glyph-name="SF010000" unicode="&#x250c;" horiz-adv-x="1451" 
 />
    <glyph glyph-name="SF030000" unicode="&#x2510;" horiz-adv-x="1451" 
 />
    <glyph glyph-name="SF020000" unicode="&#x2514;" horiz-adv-x="1451" 
 />
    <glyph glyph-name="SF040000" unicode="&#x2518;" horiz-adv-x="1451" 
 />
    <glyph glyph-name="SF080000" unicode="&#x251c;" horiz-adv-x="1451" 
 />
    <glyph glyph-name="SF090000" unicode="&#x2524;" horiz-adv-x="1451" 
 />
    <glyph glyph-name="SF060000" unicode="&#x252c;" horiz-adv-x="1451" 
 />
    <glyph glyph-name="SF070000" unicode="&#x2534;" horiz-adv-x="1451" 
 />
    <glyph glyph-name="SF050000" unicode="&#x253c;" horiz-adv-x="1451" 
 />
    <glyph glyph-name="SF430000" unicode="&#x2550;" horiz-adv-x="1451" 
 />
    <glyph glyph-name="SF240000" unicode="&#x2551;" horiz-adv-x="1451" 
 />
    <glyph glyph-name="SF510000" unicode="&#x2552;" horiz-adv-x="1451" 
 />
    <glyph glyph-name="SF520000" unicode="&#x2553;" horiz-adv-x="1451" 
 />
    <glyph glyph-name="SF390000" unicode="&#x2554;" horiz-adv-x="1451" 
 />
    <glyph glyph-name="SF220000" unicode="&#x2555;" horiz-adv-x="1451" 
 />
    <glyph glyph-name="SF210000" unicode="&#x2556;" horiz-adv-x="1451" 
 />
    <glyph glyph-name="SF250000" unicode="&#x2557;" horiz-adv-x="1451" 
 />
    <glyph glyph-name="SF500000" unicode="&#x2558;" horiz-adv-x="1451" 
 />
    <glyph glyph-name="SF490000" unicode="&#x2559;" horiz-adv-x="1451" 
 />
    <glyph glyph-name="SF380000" unicode="&#x255a;" horiz-adv-x="1451" 
 />
    <glyph glyph-name="SF280000" unicode="&#x255b;" horiz-adv-x="1451" 
 />
    <glyph glyph-name="SF270000" unicode="&#x255c;" horiz-adv-x="1451" 
 />
    <glyph glyph-name="SF260000" unicode="&#x255d;" horiz-adv-x="1451" 
 />
    <glyph glyph-name="SF360000" unicode="&#x255e;" horiz-adv-x="1451" 
 />
    <glyph glyph-name="SF370000" unicode="&#x255f;" horiz-adv-x="1451" 
 />
    <glyph glyph-name="SF420000" unicode="&#x2560;" horiz-adv-x="1451" 
 />
    <glyph glyph-name="SF190000" unicode="&#x2561;" horiz-adv-x="1451" 
 />
    <glyph glyph-name="SF200000" unicode="&#x2562;" horiz-adv-x="1451" 
 />
    <glyph glyph-name="SF230000" unicode="&#x2563;" horiz-adv-x="1451" 
 />
    <glyph glyph-name="SF470000" unicode="&#x2564;" horiz-adv-x="1451" 
 />
    <glyph glyph-name="SF480000" unicode="&#x2565;" horiz-adv-x="1451" 
 />
    <glyph glyph-name="SF410000" unicode="&#x2566;" horiz-adv-x="1451" 
 />
    <glyph glyph-name="SF450000" unicode="&#x2567;" horiz-adv-x="1451" 
 />
    <glyph glyph-name="SF460000" unicode="&#x2568;" horiz-adv-x="1451" 
 />
    <glyph glyph-name="SF400000" unicode="&#x2569;" horiz-adv-x="1451" 
 />
    <glyph glyph-name="SF540000" unicode="&#x256a;" horiz-adv-x="1451" 
 />
    <glyph glyph-name="SF530000" unicode="&#x256b;" horiz-adv-x="1451" 
 />
    <glyph glyph-name="SF440000" unicode="&#x256c;" horiz-adv-x="1451" 
 />
    <glyph glyph-name="upblock" unicode="&#x2580;" horiz-adv-x="1451" 
 />
    <glyph glyph-name="dnblock" unicode="&#x2584;" horiz-adv-x="1451" 
 />
    <glyph glyph-name="block" unicode="&#x2588;" horiz-adv-x="1451" 
 />
    <glyph glyph-name="lfblock" unicode="&#x258c;" horiz-adv-x="1451" 
 />
    <glyph glyph-name="rtblock" unicode="&#x2590;" horiz-adv-x="1451" 
 />
    <glyph glyph-name="ltshade" unicode="&#x2591;" horiz-adv-x="1451" 
 />
    <glyph glyph-name="shade" unicode="&#x2592;" horiz-adv-x="1451" 
 />
    <glyph glyph-name="dkshade" unicode="&#x2593;" horiz-adv-x="1493" 
 />
    <glyph glyph-name="filledbox" unicode="&#x25a0;" horiz-adv-x="1237" 
 />
    <glyph glyph-name="H22073" unicode="&#x25a1;" horiz-adv-x="1237" 
 />
    <glyph glyph-name="H18543" unicode="&#x25aa;" horiz-adv-x="726" 
 />
    <glyph glyph-name="H18551" unicode="&#x25ab;" horiz-adv-x="726" 
 />
    <glyph glyph-name="filledrect" unicode="&#x25ac;" horiz-adv-x="2048" 
 />
    <glyph glyph-name="triagup" unicode="&#x25b2;" horiz-adv-x="2027" 
 />
    <glyph glyph-name="triagrt" unicode="&#x25ba;" horiz-adv-x="2027" 
 />
    <glyph glyph-name="triagdn" unicode="&#x25bc;" horiz-adv-x="2027" 
 />
    <glyph glyph-name="triaglf" unicode="&#x25c4;" horiz-adv-x="2027" 
 />
    <glyph glyph-name="lozenge" unicode="&#x25ca;" horiz-adv-x="1012" 
 />
    <glyph glyph-name="circle" unicode="&#x25cb;" horiz-adv-x="1237" 
 />
    <glyph glyph-name="H18533" unicode="&#x25cf;" horiz-adv-x="1237" 
 />
    <glyph glyph-name="invbullet" unicode="&#x25d8;" horiz-adv-x="1237" 
 />
    <glyph glyph-name="invcircle" unicode="&#x25d9;" horiz-adv-x="1237" 
 />
    <glyph glyph-name="openbullet" unicode="&#x25e6;" horiz-adv-x="726" 
 />
    <glyph glyph-name="smileface" unicode="&#x263a;" horiz-adv-x="2091" 
 />
    <glyph glyph-name="invsmileface" unicode="&#x263b;" horiz-adv-x="2155" 
 />
    <glyph glyph-name="sun" unicode="&#x263c;" horiz-adv-x="1877" 
 />
    <glyph glyph-name="female" unicode="&#x2640;" horiz-adv-x="1536" 
 />
    <glyph glyph-name="male" unicode="&#x2642;" horiz-adv-x="1536" 
 />
    <glyph glyph-name="spade" unicode="&#x2660;" horiz-adv-x="1088" 
 />
    <glyph glyph-name="club" unicode="&#x2663;" horiz-adv-x="1344" 
 />
    <glyph glyph-name="heart" unicode="&#x2665;" horiz-adv-x="1216" 
 />
    <glyph glyph-name="diamond" unicode="&#x2666;" horiz-adv-x="1045" 
 />
    <glyph glyph-name="musicalnote" unicode="&#x266a;" horiz-adv-x="1024" 
 />
    <glyph glyph-name="musicalnotedbl" unicode="&#x266b;" horiz-adv-x="1536" 
 />
    <glyph glyph-name="uniF001" unicode="&#xf001;" horiz-adv-x="1024" 
 />
    <glyph glyph-name="uniF001" unicode="&#xfb01;" horiz-adv-x="1024" 
 />
    <glyph glyph-name="uniF002" unicode="&#xf002;" horiz-adv-x="1024" 
 />
    <glyph glyph-name="uniF002" unicode="&#xfb02;" horiz-adv-x="1024" 
 />
    <glyph glyph-name="uniF004" unicode="&#xf004;" horiz-adv-x="682" 
 />
    <glyph glyph-name="uniF005" unicode="&#xf005;" horiz-adv-x="682" 
 />
    <glyph glyph-name=".null" horiz-adv-x="0" 
 />
    <glyph glyph-name="nonmarkingreturn" horiz-adv-x="569" 
 />
    <glyph glyph-name="glyph154" horiz-adv-x="1124" 
 />
  </font>
</defs>
</svg>
